<?xml version="1.0" encoding="utf-8"?>
<!-- Generator: Adobe Illustrator 25.4.1, SVG Export Plug-In . SVG Version: 6.00 Build 0)  -->
<svg version="1.0" id="katman_1" xmlns="http://www.w3.org/2000/svg" xmlns:xlink="http://www.w3.org/1999/xlink" x="0px" y="0px"
	 viewBox="0 0 1280 1024" style="enable-background:new 0 0 1280 1024;" xml:space="preserve">
<style type="text/css">
	.st0{fill:#D40E14;}
</style>
<path class="st0" d="M198.1,530.3v-57.3c-0.2-7.6-3-12.4-8.3-16.6c-5.3-4.3-10.2-6.4-17.8-6.5h-2.9c-7.8,0.2-12.9,2.7-18.2,7.7
	c-5.3,4.9-8,9.9-8.2,17.3v53c0.2,7.4,2.9,12.4,8.2,17.3c5.3,4.9,10.3,7.5,18.2,7.7h2.9c7.5-0.1,12.5-2.3,17.8-6.6
	C195.1,542,197.9,537.5,198.1,530.3 M194.7,572c-0.9,0.6-1.8,1.3-2.8,2.1l-0.3,0.2c-0.2,0.1-0.4,0.3-0.6,0.4
	c-0.2,0.2-0.4,0.3-0.6,0.4c-0.2,0.1-0.4,0.3-0.6,0.4c-0.2,0.1-0.4,0.3-0.6,0.4c-0.2,0.1-0.5,0.3-0.7,0.4c-0.2,0.1-0.5,0.3-0.7,0.4
	c-0.2,0.1-0.5,0.3-0.7,0.4c-0.2,0.1-0.5,0.2-0.7,0.4c-0.2,0.1-0.5,0.2-0.8,0.3c-0.2,0.1-0.5,0.2-0.8,0.3c-0.3,0.1-0.5,0.2-0.8,0.3
	c-0.2,0.1-0.5,0.2-0.8,0.3c-0.3,0.1-0.5,0.2-0.8,0.3c-0.3,0.1-0.5,0.2-0.8,0.2c-0.3,0.1-0.5,0.2-0.8,0.2c-0.3,0.1-0.5,0.1-0.8,0.2
	c-0.2,0.1-0.5,0.1-0.7,0.2c-0.2,0-0.5,0.1-0.7,0.1c-0.2,0-0.5,0.1-0.7,0.1c-3,0.5-6,0.8-9.2,0.8h-2.3c-15.2-0.4-27.9-5.4-38.1-15
	c-10.2-9.6-15.5-21.7-15.9-36.2v-57.1c0.4-14.5,5.7-26.6,15.9-36.2c10.2-9.6,22.9-14.6,38.1-15h3c2.9,0,5.6,0.2,8.1,0.6l0.7,0.1
	c0.2,0,0.5,0.1,0.8,0.1c0.3,0,0.5,0.1,0.8,0.2c0.3,0.1,0.5,0.1,0.8,0.2c0.3,0.1,0.5,0.1,0.8,0.2c0.3,0.1,0.5,0.1,0.8,0.2
	c0.3,0.1,0.5,0.2,0.8,0.2c0.2,0.1,0.5,0.2,0.8,0.3c0.3,0.1,0.5,0.2,0.8,0.3c0.3,0.1,0.5,0.2,0.8,0.3c0.3,0.1,0.5,0.2,0.8,0.3
	c0.2,0.1,0.5,0.2,0.7,0.3c0.2,0.1,0.5,0.2,0.7,0.4c0.2,0.1,0.5,0.2,0.7,0.4c0.2,0.1,0.4,0.3,0.7,0.4l0.2,0.1l0.3,0.2l0.3,0.2
	l0.3,0.2l0.3,0.2l0.3,0.2l0.3,0.2l0.3,0.2l0.3,0.2l0.2,0.2l0.2,0.2l0.2,0.2l0.2,0.2l0.2,0.2l0.2,0.2l0.2,0.2l0.2,0.2l0.2,0.2
	c0,0,0.2,0.2,0.4,0.4c0.1,0.1,0.3,0.2,0.4,0.2c0.2,0.1,0.4,0.1,0.5,0.2c0.2,0,0.4,0.1,0.6,0.1c0.2,0,0.4,0,0.6-0.1
	c0.2,0,0.4-0.1,0.5-0.2c0.2-0.1,0.3-0.2,0.5-0.3c0.2-0.1,0.3-0.2,0.4-0.3c0.1-0.1,0.2-0.3,0.3-0.4c0.1-0.1,0.2-0.3,0.3-0.5
	c0.1-0.2,0.1-0.3,0.2-0.5c0-0.2,0.1-0.4,0.1-0.6c0-1.9-0.1-4.4,2.1-5.1c1.3-0.4,2.8-0.2,4.1-0.2h12.6h6.7c2,0,4.9-0.5,5.8,1.9
	c0.6,1.8,0.2,5.5,0.2,7.4v26.7v62.4l0,32.7c0,10.8,0.4,21.8-0.8,32.5c-3.4,30-18.4,55.5-50.2,61.1c-19.2,3.4-38.4-3.5-53.2-15.7
	c-1.8-1.5-5.6-4-5.4-6.6c0.1-0.9,0.5-1.7,1.1-2.4c0,0,12.3-13,13.2-14.2c0.9-1,2.1-2.4,3.5-2.4c1.9,0,4,1.8,7.5,3.9
	c6,3.5,12.4,6.7,19.3,7.8c4.3,0.6,9,0,13.2-1.3c16.1-5.2,20.6-25.6,21.5-41.5v-0.3c0-0.1,0-0.2,0-0.3c0-0.1,0-0.2,0-0.3
	c0-0.1-0.1-0.2-0.1-0.3c0-0.1-0.1-0.2-0.1-0.3c0-0.1-0.1-0.2-0.1-0.2c0-0.1-0.1-0.1-0.1-0.2c0-0.1-0.1-0.1-0.2-0.2
	c-0.1,0-0.1-0.1-0.2-0.2c-0.1-0.1-0.1-0.1-0.2-0.2c-0.1,0-0.1-0.1-0.2-0.2c-0.1,0-0.1-0.1-0.2-0.1c-0.1,0-0.2-0.1-0.2-0.1
	c-0.1,0-0.2-0.1-0.3-0.1c-0.1,0-0.2,0-0.3-0.1c-0.1,0-0.2,0-0.3,0c-0.1,0-0.2,0-0.3,0c-0.1,0-0.2,0-0.3,0c-0.1,0-0.2,0-0.3,0
	c-0.1,0-0.2,0-0.3,0.1c-0.1,0-0.2,0.1-0.2,0.1C195.1,571.8,194.8,571.9,194.7,572"/>
<path class="st0" d="M447,577.4v-21c0-1.2-0.3-2.1-1-2.7c-0.6-0.6-1.5-0.8-2.5-0.8h-57.7c-1.4,0-2.4-0.3-3-0.7
	c-0.5-0.5-0.9-1.1-0.9-2c0-0.8,0.3-1.9,0.7-2.5l63.3-119.4c0.2-0.4,0.3-0.8,0.5-1.2c0.1-0.4,0.2-0.9,0.2-1.2
	c-0.1-1.8-1.3-2.7-3.8-2.8H339.1c-2.4-0.1-3.5,1.1-3.5,3.5v21c-0.1,2.4,1.1,3.6,3.5,3.5h54.1c1.2,0,2.2,0.2,2.9,0.7
	c0.7,0.5,0.9,1.2,1,2.1c0,0.4-0.1,0.8-0.2,1.2c-0.1,0.5-0.3,0.9-0.5,1.2l-63.9,119.4c-0.2,0.4-0.3,0.8-0.5,1.2
	c-0.1,0.5-0.2,0.9-0.2,1.2c0.1,1.8,1.3,2.7,3.9,2.8h107.9c1.2,0,2.1-0.3,2.7-0.8C446.7,579.5,447,578.6,447,577.4"/>
<path class="st0" d="M267.8,402.8c0.1,1.2,0.4,2,1,2.6c0.7,0.7,1.7,1,3.2,1.1h21.8c1.4,0,2.5-0.4,3.2-1.1c0.6-0.6,1-1.5,1-2.6v-0.6
	V378c0-1.4-0.4-2.6-1.1-3.2c-0.7-0.7-1.7-1-3.2-1.1l-1.7,0c-1.4,0-2.5,0.3-3.7,1.6L270,395.7l-0.9,1c-1,1.1-1.4,2.1-1.4,3.3v2.1
	C267.7,402.4,267.8,402.8,267.8,402.8"/>
<path class="st0" d="M297.8,426.7c0-1.2-0.3-2.2-0.9-2.8c-0.6-0.6-1.6-0.9-2.9-0.9h-22.7c-1.3,0-2.3,0.4-2.9,1.1
	c-0.6,0.7-0.9,1.5-0.9,2.6v0.6l0,85.3l0,64.5c0,1.2,0.3,2.2,0.9,2.8c0.6,0.6,1.6,0.9,2.9,0.9h22.7c1.3,0,2.3-0.4,2.9-1.1
	c0.6-0.7,0.9-1.5,0.9-2.6V426.7z"/>
<path class="st0" d="M526.1,578.1c-0.3-0.4-0.9-0.7-1.6-0.7h-13.9l15.7-30.2c0.3-0.5,0.4-1,0.4-1.4c0-0.7-0.2-1.2-0.7-1.7
	c-0.5-0.5-1.1-0.7-1.8-0.7h-15.8c-0.7,0-1.3,0.2-1.6,0.7c-0.3,0.4-0.5,0.9-0.5,1.4c0,0.5,0.2,1,0.5,1.4c0.3,0.4,0.9,0.7,1.6,0.7
	h13.1l-15.7,30.1c-0.2,0.4-0.3,0.9-0.3,1.3c0,0.7,0.2,1.3,0.6,1.8c0.4,0.5,1,0.8,1.8,0.8h16.7c0.7,0,1.2-0.2,1.6-0.7
	c0.3-0.4,0.5-0.9,0.5-1.4C526.6,579.1,526.4,578.6,526.1,578.1 M553.2,556.8c0-0.7-0.2-1.2-0.7-1.6c-0.4-0.4-0.9-0.5-1.4-0.5
	s-1,0.2-1.4,0.5c-0.4,0.3-0.7,0.9-0.7,1.6v16.3c0,1.3-0.5,2.4-1.4,3.3c-0.9,0.9-2,1.4-3.4,1.4h-0.5c-1.3,0-2.4-0.5-3.3-1.4
	c-0.9-0.9-1.4-2-1.4-3.3v-16.3c0-0.7-0.2-1.2-0.7-1.6c-0.4-0.4-0.9-0.5-1.4-0.5c-0.5,0-1,0.2-1.4,0.5c-0.4,0.3-0.7,0.9-0.7,1.6v16.3
	c0,1.6,0.2,2.9,0.7,4c0.5,1.1,1.1,2,1.9,2.7c0.8,0.7,1.8,1.3,2.8,1.6c1.1,0.4,2.2,0.5,3.4,0.5h0.5c1,0,1.8-0.1,2.7-0.4
	c0.8-0.3,1.5-0.7,2-1.2c0.1,0.6,0.4,1,0.8,1.2c0.4,0.3,0.8,0.4,1.3,0.4c0.5,0,1-0.2,1.4-0.5c0.4-0.3,0.7-0.9,0.7-1.5V556.8z
	 M581.5,574c0-1.8-0.4-3.2-1.1-4.2c-0.7-1-1.6-1.8-2.7-2.4c-1-0.6-2.2-1-3.4-1.3c-1.3-0.3-2.4-0.6-3.5-0.8c-1-0.3-1.9-0.6-2.7-1.1
	c-0.7-0.5-1.1-1.2-1.1-2.1v-0.2c0-0.8,0.5-1.5,1.3-2.1c0.8-0.6,2-0.9,3.5-0.9h0.2c1.3,0,2.2,0.2,2.9,0.5c0.7,0.4,1.3,0.7,1.9,1
	c0.4,0.2,0.8,0.3,1.2,0.3c0.6,0,1.1-0.2,1.4-0.6c0.4-0.4,0.6-0.9,0.6-1.4c0-0.7-0.3-1.2-0.8-1.6c-0.2-0.2-0.5-0.4-1-0.7
	c-0.4-0.3-0.9-0.5-1.6-0.8c-0.6-0.2-1.3-0.5-2.1-0.6c-0.8-0.2-1.7-0.3-2.6-0.3H572c-0.9,0-1.8,0.1-2.9,0.4c-1,0.2-2,0.6-2.9,1.2
	c-0.9,0.6-1.7,1.3-2.3,2.2c-0.6,0.9-0.9,2-0.9,3.3c0,1.7,0.4,3.1,1.1,4c0.7,0.9,1.6,1.7,2.6,2.2c1.1,0.5,2.2,0.9,3.5,1.1
	c1.2,0.2,2.4,0.5,3.5,0.9c1,0.3,1.9,0.8,2.7,1.4c0.7,0.6,1.1,1.5,1.1,2.6v0.2c0,0.9-0.5,1.8-1.4,2.5c-0.9,0.8-2.2,1.2-3.9,1.2h-0.3
	c-1,0-2.1-0.4-3.2-1.1c-1.1-0.7-2-1.5-2.7-2.4c-0.3-0.4-0.6-0.6-0.9-0.8c-0.3-0.1-0.7-0.2-1-0.2c-0.6,0-1.1,0.2-1.5,0.6
	c-0.4,0.4-0.7,0.9-0.7,1.5c0,0.1,0.1,0.5,0.3,1c0.4,0.8,1,1.6,1.7,2.3c0.7,0.7,1.5,1.3,2.3,1.7c0.8,0.5,1.7,0.8,2.7,1.1
	c0.9,0.3,1.8,0.4,2.7,0.4h0.3c1.1,0,2.3-0.2,3.4-0.5c1.1-0.3,2.2-0.8,3.1-1.5c0.9-0.6,1.7-1.4,2.2-2.4c0.6-1,0.8-2.1,0.8-3.4V574z
	 M610.7,578.6c-0.3-0.4-0.7-0.6-1.4-0.8c-1-0.2-1.4-0.8-1.4-1.8v-12.8c0-1.2-0.2-2.3-0.7-3.3c-0.4-1-1-1.9-1.8-2.7
	c-0.8-0.8-1.7-1.4-2.8-1.8c-1.1-0.4-2.2-0.7-3.4-0.7h-0.4c-0.7,0-1.5,0.1-2.3,0.2c-0.8,0.2-1.5,0.4-2.3,0.8
	c-0.7,0.4-1.4,0.9-2.1,1.6c-0.7,0.7-1.2,1.5-1.6,2.5c-0.1,0.3-0.2,0.6-0.2,1c0,0.6,0.2,1.1,0.7,1.4c0.4,0.3,0.9,0.5,1.4,0.5
	c0.4,0,0.7-0.1,1-0.2c0.3-0.2,0.6-0.5,0.8-0.9c0.5-0.9,1.1-1.6,1.8-2.1c0.7-0.5,1.6-0.7,2.7-0.7h0.4c1.2,0,2.3,0.3,3.2,1
	c0.9,0.7,1.3,1.8,1.3,3.5c0,0.1,0,0.3,0,0.5c0,0.2-0.1,0.3-0.1,0.4c-0.2,0.3-0.7,0.5-1.5,0.7c-0.8,0.2-1.7,0.3-2.7,0.5
	c-1,0.2-2.1,0.4-3.3,0.7c-1.1,0.3-2.2,0.7-3.2,1.3c-1,0.6-1.8,1.3-2.4,2.3c-0.6,0.9-0.9,2.1-0.9,3.6v0.7c0,1.3,0.3,2.4,0.8,3.4
	c0.5,1,1.2,1.8,2,2.5c0.8,0.7,1.8,1.2,2.8,1.5c1.1,0.3,2.2,0.5,3.3,0.5h0.5c2.3,0,4.3-0.7,6-2.2c0.4,0.5,0.9,1,1.4,1.3
	c0.6,0.4,1.4,0.6,2.3,0.8c0,0,0.2,0,0.4,0c0.7,0,1.2-0.2,1.5-0.6c0.3-0.4,0.5-0.9,0.5-1.5C611.1,579.4,611,579,610.7,578.6
	 M603.7,573.1c0,1.3-0.5,2.4-1.4,3.3c-0.9,0.9-2.1,1.4-3.3,1.4h-0.5c-1.4,0-2.5-0.4-3.4-1.1c-0.9-0.7-1.3-1.6-1.3-2.8v-0.4
	c0-1,0.3-1.7,1-2.2c0.6-0.5,1.5-0.9,2.5-1.2c1-0.3,2.1-0.5,3.2-0.7c1.2-0.2,2.3-0.4,3.3-0.6V573.1z M652.2,563.5
	c0-1.5-0.2-2.8-0.7-4c-0.5-1.1-1.1-2-2-2.8c-0.8-0.7-1.8-1.3-2.9-1.6c-1.1-0.4-2.2-0.5-3.4-0.5h-0.5c-1.4,0-2.7,0.3-3.8,0.8
	c-1.2,0.6-2.2,1.3-3,2.3c-0.8-1-1.9-1.7-3-2.3c-1.2-0.6-2.4-0.8-3.8-0.8h-0.5c-1,0-1.9,0.1-2.7,0.4c-0.8,0.3-1.5,0.7-2.1,1.2
	c-0.1-0.6-0.4-1-0.8-1.2c-0.4-0.3-0.8-0.4-1.3-0.4c-0.5,0-1,0.2-1.5,0.6c-0.4,0.4-0.7,0.9-0.7,1.6v23.1c0,0.7,0.2,1.2,0.7,1.6
	c0.4,0.3,0.9,0.5,1.4,0.5c0.5,0,1-0.2,1.4-0.5c0.4-0.3,0.7-0.9,0.7-1.6v-16.8c0-1.3,0.5-2.3,1.5-3.1c1-0.8,2.1-1.2,3.3-1.2h0.5
	c1.3,0,2.4,0.4,3.4,1.3c0.9,0.9,1.4,2,1.4,3.4v16.2c0,0.7,0.2,1.3,0.7,1.6c0.4,0.4,0.9,0.5,1.4,0.5c0.5,0,1-0.2,1.4-0.5
	c0.4-0.3,0.7-0.9,0.7-1.6v-16.2c0-1.4,0.5-2.5,1.4-3.4c0.9-0.9,2-1.4,3.4-1.4h0.5c1.4,0,2.5,0.4,3.4,1.2c0.9,0.8,1.3,1.9,1.3,3.5
	v16.4c0,0.7,0.2,1.2,0.7,1.6c0.4,0.3,0.9,0.5,1.4,0.5s1-0.2,1.4-0.5c0.4-0.3,0.7-0.9,0.7-1.6V563.5z M694.6,563.5
	c0-1.5-0.2-2.8-0.7-4c-0.5-1.1-1.1-2-2-2.8c-0.8-0.7-1.8-1.3-2.8-1.6c-1.1-0.4-2.2-0.5-3.4-0.5h-0.5c-1.4,0-2.7,0.3-3.8,0.8
	c-1.2,0.6-2.2,1.3-3,2.3c-0.8-1-1.8-1.7-3-2.3c-1.1-0.6-2.4-0.8-3.8-0.8H671c-1,0-1.9,0.1-2.7,0.4c-0.8,0.3-1.5,0.7-2,1.2
	c-0.1-0.6-0.4-1-0.8-1.2c-0.4-0.3-0.8-0.4-1.2-0.4c-0.6,0-1.1,0.2-1.5,0.6c-0.4,0.4-0.7,0.9-0.7,1.6v23.1c0,0.7,0.2,1.2,0.7,1.6
	c0.4,0.3,0.9,0.5,1.4,0.5c0.5,0,1-0.2,1.4-0.5c0.4-0.3,0.7-0.9,0.7-1.6v-16.8c0-1.3,0.5-2.3,1.4-3.1c0.9-0.8,2.1-1.2,3.3-1.2h0.5
	c1.3,0,2.5,0.4,3.4,1.3c0.9,0.9,1.4,2,1.4,3.4v16.2c0,0.7,0.2,1.3,0.7,1.6c0.4,0.4,0.9,0.5,1.4,0.5c0.5,0,1-0.2,1.4-0.5
	c0.4-0.3,0.7-0.9,0.7-1.6v-16.2c0-1.4,0.5-2.5,1.4-3.4c0.9-0.9,2-1.4,3.4-1.4h0.5c1.4,0,2.5,0.4,3.4,1.2c0.9,0.8,1.3,1.9,1.3,3.5
	v16.4c0,0.7,0.2,1.2,0.7,1.6c0.4,0.3,0.9,0.5,1.4,0.5c0.5,0,1-0.2,1.4-0.5c0.4-0.3,0.7-0.9,0.7-1.6V563.5z M722.3,563.6
	c0-1.3-0.2-2.5-0.7-3.6c-0.5-1.1-1.1-2-1.9-2.9c-0.8-0.8-1.8-1.4-2.8-1.9c-1.1-0.4-2.2-0.7-3.5-0.7h-0.6c-1.2,0-2.4,0.2-3.4,0.7
	c-1.1,0.5-2,1.1-2.9,1.9c-0.8,0.8-1.4,1.8-1.9,2.8c-0.4,1.1-0.7,2.2-0.7,3.5v9.5c0,1.3,0.2,2.4,0.7,3.5c0.5,1.1,1.1,2,1.9,2.8
	c0.8,0.8,1.8,1.4,2.9,1.9c1.1,0.5,2.2,0.7,3.4,0.7h0.6c1.9,0,3.5-0.5,5-1.5c1.4-1,2.5-2.2,3.1-3.8c0.1-0.3,0.2-0.6,0.2-0.9
	c0-0.6-0.2-1.1-0.7-1.6c-0.4-0.4-0.9-0.6-1.5-0.6c-0.4,0-0.7,0.1-1,0.3c-0.3,0.2-0.6,0.5-0.8,1c-0.4,0.8-0.9,1.4-1.6,2
	c-0.7,0.6-1.6,0.8-2.7,0.8h-0.6c-1.3,0-2.4-0.5-3.3-1.4c-0.9-0.9-1.4-2-1.4-3.3v-2.8h12.1c0.6,0,1.1-0.2,1.5-0.6
	c0.4-0.4,0.6-0.9,0.6-1.5V563.6z M718.1,566.4h-10v-2.8c0-1.3,0.5-2.5,1.4-3.4c1-0.9,2.1-1.4,3.4-1.4h0.6c1.2,0,2.3,0.5,3.2,1.4
	c0.9,0.9,1.4,2.1,1.4,3.4V566.4z M749.8,563.6c0-1.5-0.2-2.8-0.7-4c-0.5-1.1-1.1-2.1-1.9-2.8c-0.8-0.7-1.8-1.3-2.8-1.6
	c-1.1-0.4-2.2-0.5-3.4-0.5h-0.5c-0.9,0-1.8,0.1-2.7,0.4c-0.8,0.3-1.5,0.7-2,1.2c-0.1-0.6-0.4-1-0.8-1.2c-0.4-0.3-0.9-0.4-1.3-0.4
	c-0.6,0-1.1,0.2-1.5,0.6c-0.4,0.4-0.7,0.9-0.7,1.6v23.1c0,0.7,0.2,1.2,0.7,1.6c0.4,0.3,0.9,0.5,1.4,0.5c0.5,0,1-0.2,1.4-0.5
	c0.4-0.3,0.7-0.9,0.7-1.6v-16.3c0-1.3,0.5-2.4,1.4-3.3c0.9-0.9,2-1.4,3.3-1.4h0.5c1.3,0,2.5,0.5,3.4,1.4c0.9,0.9,1.4,2,1.4,3.3v16.3
	c0,0.7,0.2,1.2,0.7,1.6c0.4,0.3,0.9,0.5,1.5,0.5c0.5,0,1-0.2,1.4-0.5c0.4-0.3,0.6-0.9,0.6-1.6V563.6z M779.6,578.6
	c-0.3-0.4-0.7-0.6-1.3-0.8c-1-0.2-1.4-0.8-1.4-1.8v-12.8c0-1.2-0.2-2.3-0.7-3.3c-0.4-1-1-1.9-1.8-2.7c-0.8-0.8-1.7-1.4-2.8-1.8
	c-1.1-0.4-2.2-0.7-3.4-0.7h-0.4c-0.7,0-1.5,0.1-2.3,0.2c-0.8,0.2-1.5,0.4-2.3,0.8c-0.7,0.4-1.4,0.9-2.1,1.6
	c-0.6,0.7-1.2,1.5-1.6,2.5c-0.1,0.3-0.2,0.6-0.2,1c0,0.6,0.2,1.1,0.7,1.4c0.4,0.3,0.9,0.5,1.4,0.5c0.4,0,0.7-0.1,1.1-0.2
	c0.3-0.2,0.6-0.5,0.8-0.9c0.5-0.9,1.1-1.6,1.8-2.1c0.7-0.5,1.6-0.7,2.7-0.7h0.4c1.2,0,2.3,0.3,3.2,1c0.9,0.7,1.3,1.8,1.3,3.5
	c0,0.1,0,0.3,0,0.5c0,0.2,0,0.3-0.1,0.4c-0.2,0.3-0.7,0.5-1.5,0.7c-0.8,0.2-1.7,0.3-2.7,0.5c-1,0.2-2.1,0.4-3.3,0.7
	c-1.1,0.3-2.2,0.7-3.2,1.3c-1,0.6-1.7,1.3-2.4,2.3c-0.6,0.9-0.9,2.1-0.9,3.6v0.7c0,1.3,0.3,2.4,0.8,3.4c0.5,1,1.2,1.8,2,2.5
	c0.8,0.7,1.8,1.2,2.9,1.5c1,0.3,2.2,0.5,3.3,0.5h0.5c2.3,0,4.3-0.7,6-2.2c0.4,0.5,0.8,1,1.4,1.3c0.6,0.4,1.4,0.6,2.3,0.8
	c0,0,0.2,0,0.4,0c0.7,0,1.2-0.2,1.5-0.6c0.3-0.4,0.5-0.9,0.5-1.5C780,579.4,779.8,579,779.6,578.6 M772.6,573.1
	c0,1.3-0.5,2.4-1.4,3.3c-0.9,0.9-2.1,1.4-3.3,1.4h-0.5c-1.4,0-2.5-0.4-3.4-1.1c-0.9-0.7-1.3-1.6-1.3-2.8v-0.4c0-1,0.3-1.7,1-2.2
	c0.6-0.5,1.5-0.9,2.5-1.2c1-0.3,2.1-0.5,3.2-0.7c1.2-0.2,2.3-0.4,3.3-0.6V573.1z M802.1,557.4c-0.7-1-1.5-1.7-2.6-2.1
	c-1.1-0.4-2.1-0.6-3.2-0.6c-0.7,0-1.3,0-1.8,0.2c-0.5,0.1-0.9,0.2-1.2,0.4c-0.4,0.1-0.7,0.3-0.9,0.6c-0.2-0.4-0.5-0.7-0.8-0.9
	c-0.3-0.2-0.7-0.2-1.1-0.2c-0.5,0-1,0.2-1.5,0.6c-0.5,0.4-0.7,0.9-0.7,1.6v23c0,0.7,0.2,1.3,0.7,1.6c0.5,0.4,0.9,0.5,1.5,0.5
	c0.5,0,1-0.2,1.4-0.5c0.5-0.3,0.7-0.9,0.7-1.6v-17.2c0-0.4,0-0.9,0.1-1.3c0.1-0.4,0.2-0.8,0.5-1.2c0.3-0.4,0.6-0.6,1.1-0.9
	c0.5-0.2,1.1-0.3,2-0.3c0.7,0,1.2,0.1,1.6,0.4c0.4,0.3,0.7,0.5,0.9,0.8c0.5,0.5,1.1,0.8,1.7,0.8c0.6,0,1-0.2,1.5-0.6
	c0.4-0.4,0.6-0.9,0.6-1.4C802.6,558.4,802.4,557.9,802.1,557.4 M829.5,563.6c0-1.2-0.2-2.4-0.7-3.5c-0.5-1.1-1.1-2-1.9-2.8
	c-0.8-0.8-1.7-1.5-2.8-1.9c-1.1-0.5-2.3-0.7-3.5-0.7h-0.4c-1,0-1.9,0.1-2.8,0.5c-0.9,0.3-1.6,0.8-2,1.4v-11.3c0-0.7-0.2-1.2-0.7-1.6
	c-0.4-0.3-0.9-0.5-1.4-0.5c-0.5,0-1,0.2-1.4,0.5c-0.4,0.4-0.7,0.9-0.7,1.6V580c0,0.7,0.2,1.2,0.7,1.5c0.4,0.3,0.9,0.5,1.4,0.5
	c0.5,0,0.9-0.1,1.3-0.4c0.4-0.3,0.7-0.7,0.7-1.2c0.4,0.4,1,0.8,1.8,1.1c0.8,0.3,1.8,0.5,3,0.5h0.5c1.2,0,2.4-0.2,3.5-0.7
	c1.1-0.5,2-1.1,2.8-1.9c0.8-0.8,1.5-1.7,1.9-2.8c0.5-1.1,0.7-2.2,0.7-3.5V563.6z M825.3,573.1c0,1.3-0.5,2.4-1.4,3.3
	c-0.9,0.9-2,1.4-3.4,1.4H820c-1.3,0-2.4-0.4-3.3-1.2c-1-0.8-1.4-1.8-1.4-3.2v-10.3c0-1.3,0.4-2.3,1.4-3.1c0.9-0.8,2-1.2,3.3-1.2h0.5
	c1.3,0,2.5,0.5,3.4,1.4c0.9,0.9,1.4,2,1.4,3.3V573.1z M856.9,563.6c0-1.3-0.2-2.5-0.7-3.6c-0.5-1.1-1.1-2-1.9-2.9
	c-0.8-0.8-1.8-1.4-2.9-1.9c-1.1-0.4-2.2-0.7-3.5-0.7h-0.6c-1.2,0-2.4,0.2-3.4,0.7c-1.1,0.5-2,1.1-2.8,1.9c-0.8,0.8-1.5,1.8-1.9,2.8
	c-0.5,1.1-0.7,2.2-0.7,3.5v9.5c0,1.3,0.2,2.4,0.7,3.5c0.5,1.1,1.1,2,1.9,2.8c0.8,0.8,1.8,1.4,2.8,1.9c1.1,0.5,2.2,0.7,3.4,0.7h0.6
	c1.9,0,3.5-0.5,5-1.5c1.4-1,2.5-2.2,3.1-3.8c0.2-0.3,0.2-0.6,0.2-0.9c0-0.6-0.2-1.1-0.7-1.6c-0.4-0.4-0.9-0.6-1.5-0.6
	c-0.4,0-0.7,0.1-1.1,0.3c-0.3,0.2-0.6,0.5-0.8,1c-0.4,0.8-0.9,1.4-1.6,2c-0.7,0.6-1.6,0.8-2.7,0.8h-0.6c-1.3,0-2.4-0.5-3.3-1.4
	c-0.9-0.9-1.4-2-1.4-3.3v-2.8h12.1c0.6,0,1.1-0.2,1.5-0.6c0.4-0.4,0.6-0.9,0.6-1.5V563.6z M852.7,566.4h-10v-2.8
	c0-1.3,0.5-2.5,1.4-3.4c0.9-0.9,2-1.4,3.4-1.4h0.6c1.2,0,2.3,0.5,3.2,1.4c0.9,0.9,1.4,2.1,1.4,3.4V566.4z M870.5,545.2
	c0-0.7-0.2-1.2-0.7-1.6c-0.4-0.3-0.9-0.5-1.4-0.5c-0.5,0-1,0.2-1.4,0.5c-0.4,0.4-0.7,0.9-0.7,1.6v1.2c0,0.7,0.2,1.2,0.7,1.6
	c0.4,0.3,0.9,0.5,1.4,0.5c0.5,0,1-0.2,1.4-0.5c0.4-0.4,0.7-0.9,0.7-1.6V545.2z M870.5,556.8c0-0.7-0.2-1.2-0.7-1.6
	c-0.4-0.4-0.9-0.5-1.4-0.5c-0.5,0-1,0.2-1.4,0.5c-0.4,0.3-0.7,0.9-0.7,1.6v23.1c0,0.7,0.2,1.2,0.7,1.6c0.4,0.3,0.9,0.5,1.4,0.5
	c0.5,0,1-0.2,1.4-0.5c0.4-0.3,0.7-0.9,0.7-1.6V556.8z M892.4,578.5c-0.3-0.4-0.8-0.7-1.5-0.7c-0.9-0.1-1.6-0.4-2.2-0.9
	c-0.6-0.5-1-1.3-1-2.2v-15.6h3c0.7,0,1.2-0.2,1.6-0.7c0.3-0.4,0.5-0.9,0.5-1.4c0-0.5-0.2-1-0.5-1.4c-0.4-0.4-0.9-0.7-1.6-0.7h-3
	v-9.6c0-0.7-0.2-1.2-0.7-1.6c-0.4-0.3-0.9-0.5-1.4-0.5c-0.5,0-1,0.2-1.4,0.5c-0.4,0.4-0.7,0.9-0.7,1.6v9.6h-1.9
	c-0.7,0-1.2,0.2-1.6,0.7c-0.4,0.4-0.5,0.9-0.5,1.4c0,0.5,0.2,1,0.5,1.4c0.3,0.4,0.9,0.7,1.6,0.7h1.9v15.7c0,1,0.2,1.9,0.5,2.8
	c0.4,0.9,0.9,1.7,1.6,2.3c0.7,0.7,1.4,1.2,2.3,1.5c0.9,0.4,1.8,0.6,2.8,0.6c0.7,0,1.3-0.2,1.6-0.6c0.3-0.4,0.5-0.9,0.5-1.4
	C892.9,579.4,892.7,578.9,892.4,578.5 M923.7,581.2c-0.9-1.4-1.7-3-2.4-4.8c-0.7-1.8-1.2-3.8-1.6-5.9c-0.4-2.1-0.6-4.4-0.6-6.7
	c0-2.3,0.2-4.5,0.6-6.6c0.4-2.1,0.9-4.1,1.6-5.9c0.7-1.8,1.4-3.4,2.3-4.9c0.9-1.4,1.8-2.6,2.7-3.5c0.4-0.4,0.6-0.8,0.6-1.3
	c0-0.5-0.2-1-0.7-1.4c-0.5-0.4-1-0.6-1.4-0.6c-0.5,0-1,0.2-1.4,0.7c-1.1,1.2-2.2,2.6-3.2,4.3c-1,1.7-1.9,3.5-2.6,5.6
	c-0.7,2-1.3,4.2-1.8,6.5c-0.4,2.3-0.7,4.7-0.7,7.3c0,2.5,0.2,5,0.7,7.4c0.4,2.4,1,4.6,1.8,6.7c0.8,2,1.6,3.9,2.7,5.6
	c1,1.7,2.1,3.1,3.3,4.2c0.4,0.4,0.9,0.7,1.4,0.7c0.6,0,1.1-0.2,1.5-0.7c0.5-0.4,0.7-0.8,0.7-1.4c0-0.5-0.2-0.9-0.7-1.4
	C925.5,583.7,924.6,582.6,923.7,581.2 M955.2,562.9c0-0.6-0.2-1-0.7-1.5c-0.4-0.4-0.9-0.6-1.5-0.6h-7.9c-0.7,0-1.2,0.2-1.6,0.7
	c-0.3,0.4-0.5,0.9-0.5,1.4c0,0.5,0.2,1,0.5,1.4c0.4,0.4,0.9,0.7,1.6,0.7h5.8v6.4c0,0.9-0.2,1.7-0.5,2.5c-0.3,0.8-0.8,1.4-1.4,2
	c-0.6,0.6-1.2,1-2,1.4c-0.8,0.3-1.6,0.5-2.5,0.5h-0.5c-0.9,0-1.7-0.2-2.5-0.5c-0.8-0.3-1.4-0.8-2-1.4c-0.6-0.6-1-1.2-1.4-2
	c-0.3-0.8-0.5-1.6-0.5-2.4v-17.9c0-0.8,0.2-1.6,0.5-2.4c0.3-0.8,0.8-1.4,1.4-2c0.6-0.6,1.2-1,2-1.4c0.8-0.3,1.6-0.5,2.5-0.5h0.5
	c1.8,0,3.3,0.5,4.3,1.6c1,1,1.7,2.3,2,3.9c0.1,0.6,0.4,1.1,0.8,1.4c0.4,0.3,0.8,0.4,1.3,0.4c0.5,0,1-0.2,1.4-0.5
	c0.4-0.4,0.7-0.9,0.7-1.5v-0.3c-0.2-1.3-0.6-2.5-1.2-3.6c-0.6-1.1-1.4-2.1-2.3-2.8c-0.9-0.8-2-1.4-3.2-1.9c-1.2-0.5-2.5-0.7-3.8-0.7
	h-0.5c-1.4,0-2.8,0.3-4.1,0.8c-1.3,0.6-2.4,1.3-3.4,2.2c-0.9,0.9-1.7,2-2.2,3.3c-0.6,1.3-0.8,2.6-0.8,4.1v17.9
	c0,1.5,0.3,2.8,0.8,4.1c0.5,1.3,1.3,2.4,2.2,3.3c0.9,0.9,2.1,1.7,3.4,2.2c1.3,0.5,2.7,0.8,4.1,0.8h0.5c1.5,0,2.8-0.3,4.1-0.8
	c1.3-0.5,2.4-1.3,3.4-2.2c0.9-0.9,1.7-2,2.2-3.3c0.6-1.3,0.8-2.6,0.8-4.1V562.9z M970.5,545.2c0-0.7-0.2-1.2-0.7-1.6
	c-0.4-0.3-0.9-0.5-1.4-0.5c-0.5,0-1,0.2-1.4,0.5c-0.4,0.4-0.7,0.9-0.7,1.6v34.7c0,0.7,0.2,1.2,0.7,1.6c0.4,0.3,0.9,0.5,1.4,0.5
	c0.5,0,1-0.2,1.4-0.5c0.4-0.3,0.7-0.9,0.7-1.6V545.2z M1001.2,578.1c-0.4-0.4-0.9-0.7-1.6-0.7h-13.9l15.7-30.2
	c0.3-0.5,0.4-1,0.4-1.4c0-0.7-0.2-1.2-0.7-1.7c-0.5-0.5-1.1-0.7-1.8-0.7h-15.8c-0.7,0-1.3,0.2-1.6,0.7c-0.3,0.4-0.5,0.9-0.5,1.4
	c0,0.5,0.2,1,0.5,1.4c0.3,0.4,0.9,0.7,1.6,0.7h13.1l-15.7,30.1c-0.2,0.4-0.3,0.9-0.3,1.3c0,0.7,0.2,1.3,0.6,1.8
	c0.4,0.5,1,0.8,1.8,0.8h16.7c0.7,0,1.2-0.2,1.6-0.7c0.3-0.4,0.5-0.9,0.5-1.4C1001.8,579.1,1001.6,578.6,1001.2,578.1 M1020.3,556.4
	c-0.4-2.3-1-4.5-1.7-6.6c-0.7-2.1-1.6-3.9-2.6-5.6c-1-1.7-2.1-3.1-3.3-4.2c-0.5-0.4-0.9-0.7-1.4-0.7c-0.4,0-0.9,0.2-1.4,0.6
	c-0.5,0.4-0.7,0.9-0.7,1.4c0,0.5,0.2,0.9,0.6,1.3c1,0.9,1.9,2.1,2.7,3.5c0.9,1.4,1.6,3.1,2.3,4.9c0.7,1.8,1.2,3.8,1.6,5.9
	c0.4,2.1,0.6,4.3,0.6,6.6c0,2.4-0.2,4.6-0.6,6.7c-0.4,2.1-0.9,4.1-1.6,5.9c-0.7,1.8-1.4,3.4-2.3,4.8c-0.9,1.4-1.8,2.6-2.8,3.5
	c-0.4,0.4-0.6,0.9-0.6,1.3c0,0.5,0.2,1,0.7,1.4c0.5,0.4,1,0.7,1.5,0.7c0.5,0,0.9-0.2,1.4-0.7c1.2-1.1,2.3-2.5,3.3-4.2
	c1-1.7,1.9-3.5,2.7-5.6c0.8-2.1,1.4-4.3,1.8-6.7c0.4-2.4,0.7-4.8,0.7-7.4C1020.9,561.2,1020.7,558.8,1020.3,556.4 M1064.1,562.9
	c0-0.6-0.2-1-0.6-1.5c-0.4-0.4-0.9-0.6-1.5-0.6h-7.9c-0.7,0-1.2,0.2-1.6,0.7c-0.3,0.4-0.5,0.9-0.5,1.4c0,0.5,0.2,1,0.5,1.4
	c0.4,0.4,0.9,0.7,1.6,0.7h5.8v6.4c0,0.9-0.2,1.7-0.5,2.5c-0.3,0.8-0.8,1.4-1.4,2c-0.6,0.6-1.2,1-2,1.4c-0.8,0.3-1.6,0.5-2.5,0.5
	h-0.6c-0.9,0-1.7-0.2-2.5-0.5c-0.8-0.3-1.4-0.8-2-1.4c-0.6-0.6-1-1.2-1.4-2c-0.3-0.8-0.5-1.6-0.5-2.4v-17.9c0-0.8,0.2-1.6,0.5-2.4
	c0.3-0.8,0.8-1.4,1.4-2c0.6-0.6,1.2-1,2-1.4c0.8-0.3,1.6-0.5,2.5-0.5h0.6c1.8,0,3.2,0.5,4.3,1.6c1.1,1,1.7,2.3,2,3.9
	c0.1,0.6,0.4,1.1,0.8,1.4c0.4,0.3,0.8,0.4,1.3,0.4c0.5,0,1-0.2,1.5-0.5c0.4-0.4,0.7-0.9,0.7-1.5v-0.3c-0.2-1.3-0.6-2.5-1.2-3.6
	c-0.6-1.1-1.4-2.1-2.3-2.8c-0.9-0.8-2-1.4-3.2-1.9c-1.2-0.5-2.5-0.7-3.8-0.7h-0.6c-1.4,0-2.8,0.3-4.1,0.8c-1.3,0.6-2.4,1.3-3.3,2.2
	c-0.9,0.9-1.7,2-2.2,3.3c-0.6,1.3-0.8,2.6-0.8,4.1v17.9c0,1.5,0.3,2.8,0.8,4.1c0.5,1.3,1.3,2.4,2.2,3.3c0.9,0.9,2.1,1.7,3.3,2.2
	c1.3,0.5,2.7,0.8,4.1,0.8h0.6c1.4,0,2.8-0.3,4.1-0.8c1.3-0.5,2.4-1.3,3.4-2.2c0.9-0.9,1.7-2,2.2-3.3c0.6-1.3,0.8-2.6,0.8-4.1V562.9z
	 M1106.8,563.5c0-1.5-0.2-2.8-0.7-4c-0.5-1.1-1.1-2-2-2.8c-0.8-0.7-1.8-1.3-2.9-1.6c-1.1-0.4-2.2-0.5-3.4-0.5h-0.5
	c-1.4,0-2.7,0.3-3.8,0.8c-1.2,0.6-2.2,1.3-3,2.3c-0.8-1-1.8-1.7-3-2.3c-1.2-0.6-2.4-0.8-3.8-0.8h-0.5c-1,0-1.9,0.1-2.7,0.4
	c-0.8,0.3-1.5,0.7-2,1.2c-0.1-0.6-0.4-1-0.8-1.2c-0.4-0.3-0.8-0.4-1.3-0.4c-0.6,0-1,0.2-1.5,0.6c-0.4,0.4-0.7,0.9-0.7,1.6v23.1
	c0,0.7,0.2,1.2,0.7,1.6c0.4,0.3,0.9,0.5,1.4,0.5c0.5,0,1-0.2,1.4-0.5c0.4-0.3,0.7-0.9,0.7-1.6v-16.8c0-1.3,0.5-2.3,1.4-3.1
	c1-0.8,2.1-1.2,3.3-1.2h0.5c1.3,0,2.5,0.4,3.4,1.3c0.9,0.9,1.4,2,1.4,3.4v16.2c0,0.7,0.2,1.3,0.7,1.6c0.4,0.4,0.9,0.5,1.4,0.5
	c0.5,0,1-0.2,1.4-0.5c0.4-0.3,0.7-0.9,0.7-1.6v-16.2c0-1.4,0.5-2.5,1.4-3.4c0.9-0.9,2-1.4,3.4-1.4h0.5c1.4,0,2.5,0.4,3.4,1.2
	c0.9,0.8,1.3,1.9,1.3,3.5v16.4c0,0.7,0.2,1.2,0.7,1.6c0.4,0.3,0.9,0.5,1.4,0.5c0.5,0,1-0.2,1.4-0.5c0.4-0.3,0.7-0.9,0.7-1.6V563.5z
	 M1135.4,563.6c0-1.2-0.2-2.4-0.7-3.5c-0.5-1.1-1.1-2-1.9-2.8c-0.8-0.8-1.7-1.5-2.8-1.9c-1.1-0.5-2.3-0.7-3.5-0.7h-0.4
	c-1,0-1.9,0.1-2.8,0.5c-0.9,0.3-1.6,0.8-2.1,1.4v-11.3c0-0.7-0.2-1.2-0.7-1.6c-0.4-0.3-0.9-0.5-1.4-0.5c-0.5,0-1,0.2-1.4,0.5
	c-0.4,0.4-0.7,0.9-0.7,1.6V580c0,0.7,0.2,1.2,0.7,1.5c0.4,0.3,0.9,0.5,1.4,0.5c0.5,0,0.9-0.1,1.3-0.4c0.4-0.3,0.7-0.7,0.7-1.2
	c0.4,0.4,1,0.8,1.8,1.1c0.8,0.3,1.8,0.5,3,0.5h0.5c1.2,0,2.4-0.2,3.4-0.7c1.1-0.5,2-1.1,2.9-1.9c0.8-0.8,1.5-1.7,1.9-2.8
	c0.5-1.1,0.7-2.2,0.7-3.5V563.6z M1131.2,573.1c0,1.3-0.5,2.4-1.4,3.3c-0.9,0.9-2,1.4-3.4,1.4h-0.5c-1.3,0-2.4-0.4-3.3-1.2
	c-0.9-0.8-1.4-1.8-1.4-3.2v-10.3c0-1.3,0.5-2.3,1.4-3.1c0.9-0.8,2-1.2,3.3-1.2h0.5c1.3,0,2.5,0.5,3.4,1.4c0.9,0.9,1.4,2,1.4,3.3
	V573.1z M1167.3,545.2c0-0.7-0.2-1.2-0.7-1.6c-0.4-0.3-0.9-0.5-1.4-0.5c-0.5,0-1,0.2-1.4,0.5c-0.4,0.4-0.7,0.9-0.7,1.6v14.6H1150
	v-14.6c0-0.7-0.2-1.2-0.7-1.6c-0.4-0.3-0.9-0.5-1.4-0.5c-0.5,0-1,0.2-1.4,0.5c-0.4,0.4-0.7,0.9-0.7,1.6v34.7c0,0.7,0.2,1.2,0.7,1.6
	c0.4,0.3,0.9,0.5,1.4,0.5c0.5,0,1-0.2,1.4-0.5c0.4-0.3,0.7-0.9,0.7-1.6V564h13.1v15.9c0,0.7,0.2,1.3,0.7,1.6
	c0.4,0.3,0.9,0.5,1.4,0.5c0.5,0,1-0.2,1.4-0.5c0.4-0.3,0.7-0.8,0.7-1.6V545.2z"/>
<path class="st0" d="M517.7,483.3c-0.3-0.4-0.9-0.7-1.6-0.7c-1,0-2,0.2-2.9,0.6c-0.9,0.4-1.6,0.9-2.3,1.5c-0.7,0.6-1.1,1.4-1.5,2.3
	c-0.3,0.9-0.5,1.9-0.5,2.9v4.4h-1.2c-0.7,0-1.2,0.2-1.6,0.7c-0.3,0.4-0.5,0.9-0.5,1.4c0,0.5,0.2,1,0.5,1.4c0.4,0.4,0.9,0.7,1.6,0.7
	h1.2v20.9c0,0.7,0.2,1.2,0.7,1.6c0.4,0.3,0.9,0.5,1.4,0.5c0.5,0,1-0.2,1.4-0.5c0.4-0.3,0.7-0.8,0.7-1.6v-20.9h2.6
	c0.7,0,1.2-0.2,1.6-0.7c0.3-0.4,0.5-0.9,0.5-1.4c0-0.5-0.2-1-0.5-1.4c-0.3-0.4-0.9-0.7-1.6-0.7h-2.6v-4.4c0-0.8,0.3-1.6,0.8-2.2
	c0.5-0.6,1.2-0.9,2.1-0.9c0.7,0,1.2-0.2,1.6-0.7c0.4-0.4,0.5-0.9,0.5-1.4C518.2,484.2,518.1,483.7,517.7,483.3 M542.3,484.7
	c0-0.7-0.2-1.2-0.7-1.6c-0.5-0.4-0.9-0.5-1.5-0.5c-0.5,0-1,0.2-1.4,0.5c-0.4,0.3-0.7,0.9-0.7,1.6v1.2c0,0.7,0.2,1.2,0.7,1.6
	c0.4,0.4,0.9,0.5,1.4,0.5c0.5,0,1-0.2,1.4-0.5c0.4-0.3,0.7-0.9,0.7-1.6V484.7z M532.1,484.7c0-0.7-0.2-1.2-0.7-1.6
	c-0.4-0.4-0.9-0.5-1.4-0.5c-0.5,0-1,0.2-1.4,0.5c-0.4,0.3-0.7,0.9-0.7,1.6v1.2c0,0.7,0.2,1.2,0.7,1.6c0.4,0.4,0.9,0.5,1.4,0.5
	c0.5,0,1-0.2,1.4-0.5c0.4-0.3,0.7-0.9,0.7-1.6V484.7z M544.4,496.3c0-0.7-0.2-1.2-0.7-1.6c-0.4-0.3-0.9-0.5-1.4-0.5
	c-0.5,0-1,0.2-1.4,0.5c-0.4,0.4-0.7,0.9-0.7,1.6v16.3c0,1.3-0.5,2.4-1.4,3.3c-0.9,0.9-2,1.4-3.4,1.4h-0.5c-1.3,0-2.4-0.5-3.3-1.4
	c-0.9-0.9-1.4-2-1.4-3.3v-16.3c0-0.7-0.2-1.2-0.7-1.6c-0.4-0.3-0.9-0.5-1.4-0.5c-0.5,0-1,0.2-1.4,0.5c-0.4,0.4-0.7,0.9-0.7,1.6v16.3
	c0,1.6,0.2,2.9,0.7,4c0.5,1.1,1.1,2,1.9,2.7c0.8,0.7,1.8,1.3,2.8,1.6c1.1,0.3,2.2,0.5,3.4,0.5h0.5c1,0,1.9-0.1,2.7-0.4
	c0.9-0.3,1.5-0.7,2.1-1.2c0.1,0.6,0.4,1,0.8,1.2c0.4,0.3,0.8,0.4,1.3,0.4c0.5,0,1-0.2,1.4-0.5c0.4-0.4,0.7-0.9,0.7-1.5V496.3z
	 M568,496.9c-0.7-1-1.5-1.7-2.6-2.1c-1.1-0.4-2.1-0.6-3.2-0.6c-0.7,0-1.4,0.1-1.8,0.2c-0.5,0.1-0.9,0.2-1.2,0.4
	c-0.4,0.1-0.7,0.3-0.9,0.6c-0.2-0.4-0.4-0.7-0.8-0.9c-0.3-0.2-0.7-0.2-1-0.2c-0.5,0-1,0.2-1.5,0.6c-0.5,0.4-0.7,0.9-0.7,1.5v23
	c0,0.7,0.2,1.3,0.7,1.6c0.4,0.3,0.9,0.5,1.4,0.5c0.5,0,1-0.2,1.4-0.5c0.4-0.4,0.7-0.9,0.7-1.6v-17.2c0-0.4,0-0.9,0.1-1.3
	c0.1-0.4,0.2-0.8,0.5-1.2c0.3-0.3,0.6-0.6,1.1-0.9c0.5-0.2,1.1-0.3,2-0.3c0.7,0,1.2,0.1,1.6,0.4c0.4,0.3,0.7,0.5,0.9,0.7
	c0.5,0.5,1.1,0.8,1.7,0.8c0.6,0,1-0.2,1.4-0.6c0.4-0.4,0.6-0.9,0.6-1.4C568.5,497.9,568.3,497.4,568,496.9 M599.5,484.7
	c0-0.7-0.2-1.2-0.7-1.6c-0.4-0.4-0.9-0.5-1.5-0.5c-0.5,0-1,0.2-1.4,0.5c-0.4,0.3-0.7,0.9-0.7,1.6v34.7c0,0.7,0.2,1.2,0.7,1.6
	c0.4,0.3,0.9,0.5,1.4,0.5c0.5,0,1-0.2,1.5-0.5c0.4-0.3,0.7-0.8,0.7-1.6V484.7z M629.1,503.1c0-1.5-0.2-2.8-0.7-4
	c-0.5-1.1-1.1-2.1-1.9-2.8c-0.8-0.7-1.7-1.3-2.8-1.6c-1.1-0.3-2.2-0.5-3.4-0.5h-0.5c-1,0-1.9,0.1-2.7,0.4c-0.8,0.3-1.5,0.7-2,1.2
	c-0.1-0.6-0.4-1-0.8-1.2c-0.4-0.3-0.8-0.4-1.3-0.4c-0.6,0-1.1,0.2-1.5,0.6c-0.4,0.4-0.7,0.9-0.7,1.5v23.1c0,0.7,0.2,1.2,0.7,1.6
	c0.4,0.3,0.9,0.5,1.4,0.5c0.5,0,1-0.2,1.4-0.5c0.4-0.3,0.7-0.8,0.7-1.6v-16.3c0-1.3,0.5-2.4,1.4-3.3c0.9-0.9,2-1.4,3.3-1.4h0.5
	c1.3,0,2.4,0.5,3.4,1.4c0.9,0.9,1.4,2,1.4,3.3v16.3c0,0.7,0.2,1.2,0.7,1.6c0.5,0.3,0.9,0.5,1.5,0.5c0.5,0,1-0.2,1.4-0.5
	c0.4-0.3,0.6-0.8,0.6-1.6V503.1z M649.8,518c-0.3-0.4-0.8-0.7-1.5-0.7c-0.8-0.1-1.6-0.4-2.2-0.9c-0.6-0.5-1-1.3-1-2.2v-15.6h3
	c0.7,0,1.2-0.2,1.6-0.7c0.4-0.4,0.5-0.9,0.5-1.4c0-0.5-0.2-1-0.5-1.4c-0.3-0.4-0.9-0.7-1.6-0.7h-3v-9.6c0-0.7-0.2-1.2-0.7-1.6
	c-0.4-0.4-0.9-0.5-1.4-0.5c-0.5,0-1,0.2-1.4,0.5c-0.4,0.3-0.7,0.9-0.7,1.6v9.6h-2c-0.7,0-1.2,0.2-1.6,0.7c-0.3,0.4-0.5,0.9-0.5,1.4
	c0,0.5,0.2,1,0.5,1.4c0.3,0.4,0.9,0.7,1.6,0.7h2v15.7c0,1,0.2,1.9,0.6,2.8c0.4,0.9,0.9,1.7,1.6,2.3c0.7,0.7,1.4,1.2,2.3,1.6
	c0.9,0.4,1.8,0.6,2.8,0.6c0.7,0,1.3-0.2,1.6-0.6c0.3-0.4,0.5-0.9,0.5-1.4C650.3,518.9,650.1,518.4,649.8,518 M676.3,503.2
	c0-1.3-0.2-2.5-0.7-3.6c-0.5-1.1-1.1-2-1.9-2.8c-0.8-0.8-1.8-1.4-2.9-1.9c-1.1-0.4-2.2-0.7-3.5-0.7h-0.5c-1.2,0-2.4,0.2-3.5,0.7
	c-1.1,0.5-2,1.1-2.8,1.9c-0.8,0.8-1.5,1.8-1.9,2.9c-0.5,1.1-0.7,2.2-0.7,3.5v9.5c0,1.3,0.2,2.4,0.7,3.5c0.5,1.1,1.1,2,1.9,2.8
	c0.8,0.8,1.8,1.4,2.8,1.9c1.1,0.5,2.2,0.7,3.5,0.7h0.5c1.9,0,3.5-0.5,4.9-1.5c1.4-1,2.5-2.2,3.2-3.8c0.1-0.3,0.2-0.6,0.2-0.9
	c0-0.6-0.2-1.1-0.7-1.6s-0.9-0.6-1.5-0.6c-0.4,0-0.7,0.1-1.1,0.3c-0.3,0.2-0.6,0.5-0.8,1c-0.4,0.8-0.9,1.4-1.6,2
	c-0.7,0.6-1.6,0.8-2.7,0.8h-0.5c-1.3,0-2.4-0.5-3.3-1.4c-0.9-0.9-1.4-2-1.4-3.3v-2.8h12.1c0.6,0,1.1-0.2,1.5-0.6
	c0.4-0.4,0.6-0.9,0.6-1.5V503.2z M672.1,505.9h-10v-2.8c0-1.3,0.5-2.5,1.4-3.4c0.9-0.9,2.1-1.4,3.3-1.4h0.6c1.2,0,2.3,0.5,3.2,1.4
	c1,0.9,1.4,2.1,1.4,3.4V505.9z M699,496.9c-0.7-1-1.5-1.7-2.6-2.1c-1-0.4-2.1-0.6-3.2-0.6c-0.7,0-1.3,0.1-1.8,0.2
	c-0.5,0.1-0.9,0.2-1.2,0.4c-0.4,0.1-0.7,0.3-0.9,0.6c-0.2-0.4-0.5-0.7-0.8-0.9c-0.3-0.2-0.7-0.2-1.1-0.2c-0.5,0-1,0.2-1.5,0.6
	c-0.5,0.4-0.7,0.9-0.7,1.5v23c0,0.7,0.2,1.3,0.6,1.6c0.5,0.3,0.9,0.5,1.5,0.5c0.5,0,1-0.2,1.4-0.5c0.5-0.4,0.7-0.9,0.7-1.6v-17.2
	c0-0.4,0-0.9,0.1-1.3c0.1-0.4,0.2-0.8,0.5-1.2c0.3-0.3,0.6-0.6,1.1-0.9c0.5-0.2,1.1-0.3,2-0.3c0.7,0,1.2,0.1,1.6,0.4
	c0.4,0.3,0.7,0.5,0.9,0.7c0.5,0.5,1.1,0.8,1.7,0.8c0.6,0,1-0.2,1.4-0.6c0.4-0.4,0.6-0.9,0.6-1.4C699.5,497.9,699.3,497.4,699,496.9
	 M725,503.1c0-1.5-0.2-2.8-0.7-4c-0.5-1.1-1.1-2.1-1.9-2.8c-0.8-0.7-1.8-1.3-2.8-1.6c-1.1-0.3-2.2-0.5-3.4-0.5h-0.5
	c-1,0-1.9,0.1-2.7,0.4c-0.8,0.3-1.5,0.7-2,1.2c-0.1-0.6-0.4-1-0.8-1.2c-0.4-0.3-0.9-0.4-1.3-0.4c-0.6,0-1.1,0.2-1.5,0.6
	c-0.4,0.4-0.7,0.9-0.7,1.5v23.1c0,0.7,0.2,1.2,0.7,1.6c0.4,0.3,0.9,0.5,1.5,0.5c0.5,0,1-0.2,1.4-0.5c0.4-0.3,0.7-0.8,0.7-1.6v-16.3
	c0-1.3,0.5-2.4,1.4-3.3c0.9-0.9,2-1.4,3.3-1.4h0.5c1.3,0,2.4,0.5,3.4,1.4c0.9,0.9,1.4,2,1.4,3.3v16.3c0,0.7,0.2,1.2,0.7,1.6
	c0.4,0.3,0.9,0.5,1.4,0.5c0.5,0,1-0.2,1.4-0.5c0.4-0.3,0.6-0.8,0.6-1.6V503.1z M754.9,518.1c-0.3-0.4-0.7-0.6-1.4-0.7
	c-1-0.2-1.4-0.8-1.4-1.8v-12.8c0-1.2-0.2-2.3-0.7-3.3c-0.4-1-1-1.9-1.8-2.7c-0.8-0.8-1.7-1.4-2.8-1.8c-1.1-0.4-2.2-0.7-3.4-0.7H743
	c-0.7,0-1.5,0.1-2.3,0.2c-0.8,0.2-1.5,0.4-2.3,0.8c-0.7,0.4-1.4,0.9-2.1,1.6c-0.7,0.7-1.2,1.5-1.6,2.5c-0.1,0.3-0.2,0.6-0.2,1
	c0,0.6,0.2,1.1,0.7,1.4c0.4,0.3,0.9,0.5,1.4,0.5c0.3,0,0.7-0.1,1-0.2c0.3-0.2,0.6-0.5,0.8-0.9c0.5-0.9,1.1-1.6,1.7-2.1
	c0.7-0.5,1.6-0.7,2.7-0.7h0.4c1.2,0,2.3,0.3,3.2,1c0.9,0.7,1.3,1.8,1.3,3.5c0,0.1,0,0.3,0,0.5c0,0.2-0.1,0.3-0.1,0.4
	c-0.2,0.3-0.7,0.5-1.5,0.7c-0.8,0.2-1.7,0.3-2.7,0.5c-1,0.2-2.1,0.4-3.3,0.7c-1.1,0.3-2.2,0.7-3.2,1.3c-1,0.6-1.7,1.3-2.4,2.3
	c-0.6,0.9-1,2.1-1,3.6v0.7c0,1.3,0.3,2.4,0.8,3.4c0.5,1,1.2,1.8,2,2.5c0.8,0.7,1.8,1.2,2.8,1.5c1.1,0.3,2.2,0.5,3.3,0.5h0.5
	c2.3,0,4.3-0.7,6-2.2c0.4,0.5,0.9,1,1.4,1.3c0.6,0.4,1.4,0.6,2.3,0.8c0,0,0.2,0.1,0.4,0.1c0.7,0,1.2-0.2,1.5-0.6
	c0.3-0.4,0.5-0.9,0.5-1.5C755.3,518.9,755.1,518.5,754.9,518.1 M747.9,512.6c0,1.3-0.5,2.5-1.4,3.4c-0.9,0.9-2,1.4-3.3,1.4h-0.5
	c-1.4,0-2.5-0.3-3.4-1c-0.9-0.7-1.3-1.6-1.3-2.8V513c0-1,0.3-1.7,1-2.2c0.6-0.5,1.5-0.9,2.5-1.2c1-0.3,2.1-0.5,3.2-0.7
	c1.2-0.2,2.3-0.4,3.3-0.6V512.6z M773.6,518c-0.3-0.4-0.8-0.7-1.5-0.7c-0.8-0.1-1.6-0.4-2.2-0.9c-0.6-0.5-1-1.3-1-2.2v-15.6h3
	c0.7,0,1.2-0.2,1.6-0.7c0.3-0.4,0.5-0.9,0.5-1.4c0-0.5-0.2-1-0.5-1.4c-0.4-0.4-0.9-0.7-1.6-0.7h-3v-9.6c0-0.7-0.2-1.2-0.7-1.6
	c-0.4-0.4-0.9-0.5-1.4-0.5c-0.5,0-1,0.2-1.4,0.5c-0.4,0.3-0.7,0.9-0.7,1.6v9.6h-1.9c-0.7,0-1.2,0.2-1.6,0.7
	c-0.4,0.4-0.5,0.9-0.5,1.4c0,0.5,0.2,1,0.5,1.4c0.3,0.4,0.9,0.7,1.6,0.7h1.9v15.7c0,1,0.2,1.9,0.6,2.8c0.4,0.9,0.9,1.7,1.6,2.3
	c0.7,0.7,1.4,1.2,2.3,1.6c0.9,0.4,1.8,0.6,2.8,0.6c0.8,0,1.3-0.2,1.6-0.6c0.3-0.4,0.5-0.9,0.5-1.4
	C774.1,518.9,773.9,518.4,773.6,518 M787.2,484.7c0-0.7-0.2-1.2-0.7-1.6c-0.4-0.4-0.9-0.5-1.4-0.5c-0.5,0-1,0.2-1.4,0.5
	c-0.4,0.3-0.7,0.9-0.7,1.6v1.2c0,0.7,0.2,1.2,0.7,1.6c0.4,0.4,0.9,0.5,1.4,0.5c0.5,0,1-0.2,1.4-0.5c0.4-0.3,0.7-0.9,0.7-1.6V484.7z
	 M787.2,496.3c0-0.7-0.2-1.2-0.7-1.6c-0.4-0.3-0.9-0.5-1.4-0.5c-0.5,0-1,0.2-1.4,0.5c-0.4,0.4-0.7,0.9-0.7,1.6v23.1
	c0,0.7,0.2,1.2,0.7,1.6c0.4,0.3,0.9,0.5,1.4,0.5c0.5,0,1-0.2,1.4-0.5c0.4-0.3,0.7-0.8,0.7-1.6V496.3z M815.5,503.1
	c0-1.2-0.2-2.4-0.7-3.5c-0.4-1.1-1.1-2-1.9-2.9c-0.8-0.8-1.8-1.4-2.9-1.9c-1.1-0.5-2.3-0.7-3.5-0.7H806c-1.2,0-2.4,0.2-3.5,0.7
	c-1.1,0.5-2,1.1-2.8,1.9c-0.8,0.8-1.5,1.8-1.9,2.9c-0.5,1.1-0.7,2.2-0.7,3.5v9.5c0,1.3,0.2,2.4,0.7,3.5c0.5,1.1,1.1,2,1.9,2.8
	c0.8,0.8,1.8,1.4,2.8,1.9c1.1,0.5,2.2,0.7,3.5,0.7h0.6c1.2,0,2.4-0.2,3.5-0.7c1.1-0.5,2-1.1,2.9-1.9c0.8-0.8,1.4-1.7,1.9-2.8
	c0.5-1.1,0.7-2.2,0.7-3.5V503.1z M811.3,512.6c0,1.3-0.5,2.4-1.4,3.3c-0.9,0.9-2,1.4-3.3,1.4h-0.5c-1.3,0-2.5-0.5-3.4-1.4
	c-0.9-0.9-1.4-2-1.4-3.3v-9.5c0-1.3,0.5-2.4,1.4-3.3c0.9-0.9,2-1.4,3.3-1.4h0.6c1.3,0,2.4,0.5,3.3,1.4c0.9,0.9,1.4,2,1.4,3.3V512.6z
	 M843.5,503.1c0-1.5-0.2-2.8-0.7-4c-0.5-1.1-1.1-2.1-1.9-2.8c-0.8-0.7-1.7-1.3-2.8-1.6c-1.1-0.3-2.2-0.5-3.4-0.5h-0.5
	c-1,0-1.9,0.1-2.7,0.4c-0.8,0.3-1.5,0.7-2,1.2c-0.1-0.6-0.4-1-0.8-1.2c-0.4-0.3-0.8-0.4-1.3-0.4c-0.6,0-1,0.2-1.5,0.6
	c-0.4,0.4-0.7,0.9-0.7,1.5v23.1c0,0.7,0.2,1.2,0.7,1.6c0.4,0.3,0.9,0.5,1.4,0.5c0.5,0,1-0.2,1.4-0.5c0.4-0.3,0.7-0.8,0.7-1.6v-16.3
	c0-1.3,0.5-2.4,1.4-3.3c0.9-0.9,2-1.4,3.3-1.4h0.5c1.3,0,2.4,0.5,3.3,1.4c0.9,0.9,1.4,2,1.4,3.3v16.3c0,0.7,0.2,1.2,0.7,1.6
	c0.5,0.3,0.9,0.5,1.5,0.5c0.5,0,1-0.2,1.4-0.5c0.4-0.3,0.6-0.8,0.6-1.6V503.1z M873.3,518.1c-0.3-0.4-0.7-0.6-1.4-0.7
	c-1-0.2-1.4-0.8-1.4-1.8v-12.8c0-1.2-0.2-2.3-0.7-3.3c-0.4-1-1.1-1.9-1.8-2.7c-0.8-0.8-1.7-1.4-2.8-1.8c-1.1-0.4-2.2-0.7-3.4-0.7
	h-0.4c-0.7,0-1.5,0.1-2.3,0.2c-0.8,0.2-1.6,0.4-2.3,0.8c-0.7,0.4-1.4,0.9-2.1,1.6c-0.7,0.7-1.2,1.5-1.6,2.5c-0.1,0.3-0.2,0.6-0.2,1
	c0,0.6,0.2,1.1,0.7,1.4c0.4,0.3,0.9,0.5,1.4,0.5c0.4,0,0.7-0.1,1-0.2c0.3-0.2,0.6-0.5,0.8-0.9c0.5-0.9,1.1-1.6,1.8-2.1
	c0.7-0.5,1.6-0.7,2.7-0.7h0.4c1.2,0,2.3,0.3,3.2,1c0.9,0.7,1.3,1.8,1.3,3.5c0,0.1,0,0.3,0,0.5c0,0.2,0,0.3-0.1,0.4
	c-0.2,0.3-0.7,0.5-1.5,0.7c-0.8,0.2-1.7,0.3-2.7,0.5c-1,0.2-2.1,0.4-3.3,0.7c-1.1,0.3-2.2,0.7-3.2,1.3c-1,0.6-1.8,1.3-2.4,2.3
	c-0.6,0.9-0.9,2.1-0.9,3.6v0.7c0,1.3,0.3,2.4,0.8,3.4c0.5,1,1.2,1.8,2,2.5c0.8,0.7,1.8,1.2,2.8,1.5c1.1,0.3,2.2,0.5,3.3,0.5h0.5
	c2.3,0,4.3-0.7,5.9-2.2c0.4,0.5,0.9,1,1.5,1.3c0.6,0.4,1.4,0.6,2.3,0.8c0,0,0.2,0.1,0.4,0.1c0.7,0,1.2-0.2,1.5-0.6
	c0.3-0.4,0.5-0.9,0.5-1.5C873.7,518.9,873.6,518.5,873.3,518.1 M866.3,512.6c0,1.3-0.5,2.5-1.4,3.4c-0.9,0.9-2.1,1.4-3.3,1.4H861
	c-1.4,0-2.5-0.3-3.4-1c-0.9-0.7-1.3-1.6-1.3-2.8V513c0-1,0.3-1.7,1-2.2c0.7-0.5,1.5-0.9,2.5-1.2c1-0.3,2.1-0.5,3.2-0.7
	c1.2-0.2,2.3-0.4,3.3-0.6V512.6z M890.9,517.9c-0.3-0.4-0.9-0.7-1.6-0.7c-0.8,0-1.6-0.3-2.2-0.9c-0.6-0.6-0.9-1.3-0.9-2.2v-29.4
	c0-0.7-0.2-1.2-0.7-1.6c-0.4-0.4-0.9-0.5-1.4-0.5c-0.5,0-1,0.2-1.5,0.5c-0.4,0.3-0.6,0.9-0.6,1.6v29.5c0,1,0.2,1.9,0.6,2.8
	c0.4,0.9,0.9,1.7,1.6,2.3c0.7,0.7,1.4,1.2,2.3,1.6c0.9,0.4,1.8,0.6,2.8,0.6c0.7,0,1.3-0.2,1.6-0.6c0.3-0.4,0.5-0.9,0.5-1.4
	C891.5,518.9,891.3,518.4,890.9,517.9 M917.5,503.2c0-1.3-0.2-2.5-0.7-3.6c-0.5-1.1-1.1-2-1.9-2.8c-0.8-0.8-1.8-1.4-2.8-1.9
	c-1.1-0.4-2.2-0.7-3.4-0.7H908c-1.2,0-2.4,0.2-3.4,0.7c-1.1,0.5-2,1.1-2.9,1.9c-0.8,0.8-1.4,1.8-1.9,2.9c-0.5,1.1-0.7,2.2-0.7,3.5
	v9.5c0,1.3,0.2,2.4,0.7,3.5c0.5,1.1,1.1,2,1.9,2.8c0.8,0.8,1.8,1.4,2.9,1.9c1.1,0.5,2.2,0.7,3.4,0.7h0.6c1.9,0,3.5-0.5,5-1.5
	c1.4-1,2.5-2.2,3.1-3.8c0.1-0.3,0.2-0.6,0.2-0.9c0-0.6-0.2-1.1-0.7-1.6c-0.4-0.4-0.9-0.6-1.5-0.6c-0.4,0-0.7,0.1-1.1,0.3
	c-0.3,0.2-0.6,0.5-0.8,1c-0.4,0.8-0.9,1.4-1.6,2c-0.7,0.6-1.6,0.8-2.7,0.8H908c-1.3,0-2.4-0.5-3.3-1.4c-0.9-0.9-1.4-2-1.4-3.3v-2.8
	h12.1c0.6,0,1.1-0.2,1.5-0.6c0.4-0.4,0.6-0.9,0.6-1.5V503.2z M913.2,505.9h-10v-2.8c0-1.3,0.5-2.5,1.4-3.4c0.9-0.9,2.1-1.4,3.3-1.4
	h0.6c1.2,0,2.3,0.5,3.2,1.4c0.9,0.9,1.4,2.1,1.4,3.4V505.9z"/>
<path class="st0" d="M529.7,432.9c0-1.4-0.3-2.8-0.8-4.1c-0.6-1.3-1.3-2.4-2.3-3.3c-0.9-0.9-2-1.7-3.3-2.2c-1.3-0.6-2.6-0.8-4.1-0.8
	h-9c-0.5,0-1,0.2-1.5,0.6c-0.4,0.4-0.6,0.9-0.6,1.5v34c0,0.5,0.2,1,0.6,1.5c0.4,0.4,0.9,0.6,1.5,0.6h9c1.5,0,2.8-0.3,4.1-0.8
	c1.3-0.6,2.4-1.3,3.3-2.2c0.9-0.9,1.7-2.1,2.3-3.3c0.6-1.3,0.8-2.7,0.8-4.1V432.9z M525.5,450.2c0,0.9-0.2,1.7-0.5,2.5
	c-0.3,0.8-0.8,1.4-1.3,2s-1.2,1-2,1.4c-0.8,0.3-1.6,0.5-2.5,0.5h-6.8v-29.8h6.9c0.9,0,1.7,0.2,2.5,0.5c0.8,0.3,1.4,0.8,2,1.4
	c0.5,0.6,1,1.2,1.3,2c0.3,0.8,0.5,1.6,0.5,2.5V450.2z M557.8,442.7c0-1.3-0.2-2.5-0.7-3.6c-0.5-1.1-1.1-2-1.9-2.9
	c-0.8-0.8-1.8-1.4-2.8-1.9c-1.1-0.4-2.3-0.7-3.5-0.7h-0.5c-1.2,0-2.4,0.2-3.5,0.7c-1.1,0.5-2,1.1-2.8,1.9c-0.8,0.8-1.5,1.8-1.9,2.8
	c-0.5,1.1-0.7,2.2-0.7,3.5v9.5c0,1.3,0.2,2.4,0.7,3.5c0.5,1.1,1.1,2,1.9,2.8c0.8,0.8,1.8,1.4,2.8,1.9c1.1,0.5,2.3,0.7,3.5,0.7h0.5
	c1.9,0,3.5-0.5,5-1.5c1.4-1,2.5-2.2,3.1-3.8c0.1-0.3,0.2-0.6,0.2-0.9c0-0.6-0.2-1.1-0.7-1.6c-0.4-0.4-0.9-0.6-1.5-0.6
	c-0.4,0-0.7,0.1-1,0.3c-0.3,0.2-0.6,0.6-0.8,1c-0.4,0.8-0.9,1.4-1.6,2c-0.7,0.6-1.6,0.8-2.7,0.8h-0.5c-1.3,0-2.4-0.5-3.3-1.4
	c-0.9-0.9-1.4-2-1.4-3.3v-2.8h12.1c0.6,0,1.1-0.2,1.5-0.6c0.4-0.4,0.6-0.9,0.6-1.5V442.7z M553.6,445.5h-10v-2.8
	c0-1.3,0.5-2.5,1.4-3.4c0.9-0.9,2.1-1.4,3.3-1.4h0.5c1.2,0,2.3,0.5,3.2,1.4c0.9,0.9,1.4,2.1,1.4,3.4V445.5z M585,435.8
	c0-0.7-0.2-1.2-0.7-1.6c-0.4-0.4-0.9-0.5-1.4-0.5c-0.5,0-1,0.2-1.4,0.5c-0.4,0.3-0.7,0.9-0.7,1.6v16.3c0,1.3-0.5,2.4-1.4,3.3
	c-0.9,0.9-2.1,1.4-3.4,1.4h-0.5c-1.3,0-2.4-0.5-3.3-1.4c-0.9-0.9-1.4-2-1.4-3.3v-16.3c0-0.7-0.2-1.2-0.7-1.6
	c-0.4-0.4-0.9-0.5-1.4-0.5c-0.5,0-1,0.2-1.4,0.5c-0.4,0.3-0.7,0.9-0.7,1.6v16.3c0,1.6,0.2,2.9,0.7,4c0.5,1.1,1.1,2,1.9,2.7
	s1.8,1.3,2.8,1.6c1.1,0.4,2.2,0.5,3.4,0.5h0.5c1,0,1.9-0.1,2.7-0.4c0.8-0.3,1.5-0.7,2.1-1.2c0.1,0.6,0.4,1,0.8,1.2
	c0.4,0.3,0.9,0.4,1.3,0.4c0.5,0,1-0.2,1.4-0.5c0.4-0.3,0.7-0.9,0.7-1.5V435.8z M606.5,457.5c-0.3-0.4-0.8-0.7-1.5-0.7
	c-0.9-0.1-1.6-0.4-2.2-0.9c-0.6-0.5-1-1.3-1-2.2v-15.6h3c0.7,0,1.2-0.2,1.6-0.7c0.4-0.4,0.5-0.9,0.5-1.4c0-0.5-0.2-1-0.5-1.4
	c-0.3-0.4-0.9-0.7-1.6-0.7h-3v-9.6c0-0.7-0.2-1.2-0.7-1.6c-0.4-0.3-0.9-0.5-1.4-0.5c-0.5,0-1,0.2-1.4,0.5c-0.4,0.4-0.7,0.9-0.7,1.6
	v9.6h-1.9c-0.7,0-1.2,0.2-1.6,0.7c-0.4,0.4-0.5,0.9-0.5,1.4c0,0.5,0.2,1,0.5,1.4c0.3,0.4,0.9,0.7,1.6,0.7h1.9v15.7
	c0,1,0.2,1.9,0.6,2.8c0.4,0.9,0.9,1.7,1.5,2.3c0.7,0.7,1.4,1.2,2.3,1.6c0.9,0.4,1.8,0.6,2.8,0.6c0.8,0,1.3-0.2,1.6-0.6
	c0.3-0.4,0.5-0.9,0.5-1.4C606.9,458.4,606.8,457.9,606.5,457.5 M633.7,453.1c0-1.8-0.4-3.2-1.1-4.2c-0.7-1-1.6-1.8-2.7-2.4
	c-1-0.6-2.2-1-3.4-1.3c-1.3-0.3-2.4-0.6-3.5-0.8c-1-0.3-1.9-0.6-2.6-1.1c-0.7-0.5-1.1-1.2-1.1-2.1v-0.2c0-0.8,0.5-1.5,1.3-2.1
	c0.8-0.6,2-0.9,3.6-0.9h0.2c1.3,0,2.2,0.2,2.9,0.5c0.7,0.4,1.3,0.7,1.9,1c0.5,0.2,0.9,0.3,1.2,0.3c0.6,0,1.1-0.2,1.5-0.6
	c0.4-0.4,0.5-0.9,0.5-1.4c0-0.7-0.2-1.2-0.8-1.6c-0.2-0.2-0.5-0.4-1-0.7c-0.4-0.3-0.9-0.5-1.6-0.8c-0.6-0.2-1.3-0.5-2.1-0.6
	c-0.8-0.2-1.7-0.3-2.6-0.3h-0.2c-0.9,0-1.8,0.1-2.9,0.4c-1,0.2-2,0.6-2.9,1.2c-0.9,0.6-1.7,1.3-2.3,2.2c-0.6,0.9-0.9,2-0.9,3.3
	c0,1.7,0.4,3.1,1.1,4c0.7,0.9,1.6,1.7,2.6,2.2c1.1,0.5,2.2,0.9,3.5,1.1c1.3,0.2,2.4,0.5,3.5,0.8c1,0.3,1.9,0.8,2.6,1.4
	c0.7,0.6,1.1,1.4,1.1,2.6v0.2c0,0.9-0.5,1.8-1.4,2.5c-0.9,0.8-2.2,1.2-3.9,1.2H624c-1,0-2.1-0.4-3.2-1.1c-1.1-0.7-2-1.5-2.7-2.4
	c-0.2-0.4-0.5-0.6-0.9-0.8c-0.3-0.1-0.7-0.2-1-0.2c-0.6,0-1.1,0.2-1.5,0.6c-0.4,0.4-0.7,0.9-0.7,1.5c0,0.1,0.1,0.5,0.3,1
	c0.4,0.8,1,1.6,1.7,2.3c0.7,0.7,1.5,1.3,2.3,1.7c0.8,0.5,1.7,0.8,2.7,1.1c0.9,0.3,1.8,0.4,2.7,0.4h0.3c1.1,0,2.3-0.2,3.4-0.5
	c1.1-0.3,2.2-0.8,3.1-1.5c0.9-0.6,1.7-1.4,2.2-2.4c0.6-1,0.8-2.1,0.8-3.4V453.1z M660,450.5c-0.4-0.3-0.9-0.5-1.5-0.5
	c-0.5,0-1,0.2-1.4,0.5c-0.4,0.4-0.7,0.9-0.7,1.6c-0.1,1.3-0.5,2.4-1.4,3.3c-0.9,0.9-2,1.4-3.3,1.4h-0.5c-1.3,0-2.5-0.5-3.4-1.4
	c-0.9-0.9-1.4-2-1.4-3.3v-9.5c0-1.3,0.5-2.4,1.4-3.3c0.9-0.9,2-1.4,3.3-1.4h0.6c1.3,0,2.4,0.4,3.3,1.3c0.9,0.9,1.4,2,1.4,3.4
	c0,0.7,0.3,1.2,0.7,1.5c0.4,0.3,0.9,0.5,1.4,0.5c0.5,0,1-0.2,1.5-0.5c0.4-0.4,0.7-0.9,0.7-1.6c0-1.2-0.2-2.4-0.7-3.5
	c-0.5-1.1-1.1-2-1.9-2.8c-0.8-0.8-1.7-1.5-2.8-1.9c-1.1-0.5-2.2-0.7-3.4-0.7h-0.6c-1.2,0-2.4,0.2-3.5,0.7c-1.1,0.5-2,1.1-2.8,1.9
	c-0.8,0.8-1.4,1.7-1.9,2.8c-0.5,1.1-0.7,2.3-0.7,3.5v9.5c0,1.3,0.2,2.4,0.7,3.5c0.5,1.1,1.1,2,1.9,2.8c0.8,0.8,1.8,1.4,2.8,1.9
	c1.1,0.5,2.3,0.7,3.5,0.7h0.6c1.2,0,2.4-0.2,3.4-0.7c1.1-0.5,2-1.1,2.9-1.9c0.8-0.8,1.5-1.7,1.9-2.8c0.5-1.1,0.7-2.2,0.7-3.5
	C660.6,451.4,660.4,450.8,660,450.5 M688.4,442.6c0-1.2-0.2-2.4-0.7-3.5c-0.5-1.1-1.1-2-1.9-2.8c-0.8-0.8-1.8-1.5-2.8-1.9
	c-1.1-0.5-2.3-0.7-3.5-0.7H679c-0.9,0-1.9,0.1-2.8,0.4c-0.9,0.3-1.6,0.7-2,1.2v-11.1c0-0.7-0.2-1.2-0.7-1.6
	c-0.4-0.3-0.9-0.5-1.5-0.5c-0.5,0-1,0.2-1.4,0.5c-0.4,0.4-0.7,0.9-0.7,1.6V459c0,0.7,0.2,1.2,0.7,1.6c0.4,0.3,0.9,0.5,1.4,0.5
	c0.5,0,1-0.2,1.5-0.5c0.4-0.3,0.7-0.8,0.7-1.6v-16.6c0-0.7,0.1-1.3,0.4-1.9c0.3-0.6,0.7-1,1.1-1.4c0.5-0.4,1-0.7,1.6-0.9
	c0.6-0.2,1.2-0.3,1.9-0.3c0.6,0,1.2,0.1,1.8,0.3c0.6,0.2,1.1,0.5,1.6,0.9c0.5,0.4,0.8,0.9,1.1,1.5c0.3,0.6,0.4,1.3,0.4,2.1V459
	c0,0.7,0.2,1.2,0.7,1.6c0.4,0.3,0.9,0.5,1.5,0.5c0.5,0,1-0.2,1.4-0.5c0.4-0.3,0.7-0.8,0.7-1.6V442.6z M715.8,442.7
	c0-1.3-0.2-2.5-0.7-3.6c-0.5-1.1-1.1-2-1.9-2.9c-0.8-0.8-1.7-1.4-2.8-1.9c-1.1-0.4-2.2-0.7-3.4-0.7h-0.6c-1.2,0-2.4,0.2-3.5,0.7
	c-1.1,0.5-2,1.1-2.9,1.9c-0.8,0.8-1.4,1.8-1.9,2.8c-0.5,1.1-0.7,2.2-0.7,3.5v9.5c0,1.3,0.2,2.4,0.7,3.5c0.5,1.1,1.1,2,1.9,2.8
	c0.8,0.8,1.8,1.4,2.9,1.9c1.1,0.5,2.2,0.7,3.5,0.7h0.6c1.9,0,3.5-0.5,5-1.5c1.4-1,2.5-2.2,3.1-3.8c0.1-0.3,0.2-0.6,0.2-0.9
	c0-0.6-0.2-1.1-0.7-1.6c-0.5-0.4-1-0.6-1.5-0.6c-0.4,0-0.7,0.1-1.1,0.3c-0.3,0.2-0.6,0.6-0.8,1c-0.4,0.8-0.9,1.4-1.6,2
	c-0.7,0.6-1.6,0.8-2.7,0.8h-0.6c-1.3,0-2.4-0.5-3.3-1.4c-0.9-0.9-1.4-2-1.4-3.3v-2.8h12.1c0.6,0,1.1-0.2,1.5-0.6
	c0.4-0.4,0.6-0.9,0.6-1.5V442.7z M711.6,445.5h-10v-2.8c0-1.3,0.5-2.5,1.4-3.4c0.9-0.9,2.1-1.4,3.4-1.4h0.5c1.2,0,2.3,0.5,3.3,1.4
	c0.9,0.9,1.4,2.1,1.4,3.4V445.5z M764.8,442c0-0.6-0.2-1-0.6-1.5c-0.4-0.4-0.9-0.6-1.5-0.6h-7.9c-0.7,0-1.2,0.2-1.6,0.7
	c-0.3,0.4-0.5,0.9-0.5,1.4c0,0.5,0.2,1,0.5,1.4c0.3,0.4,0.9,0.7,1.6,0.7h5.8v6.4c0,0.9-0.1,1.7-0.5,2.5c-0.3,0.8-0.8,1.4-1.3,2
	c-0.6,0.6-1.2,1-2,1.4c-0.8,0.3-1.6,0.5-2.5,0.5h-0.6c-0.9,0-1.7-0.2-2.5-0.5c-0.8-0.3-1.4-0.8-2-1.4c-0.6-0.6-1-1.2-1.4-2
	c-0.3-0.8-0.5-1.6-0.5-2.5v-17.9c0-0.8,0.2-1.6,0.5-2.4c0.3-0.8,0.8-1.4,1.4-2c0.6-0.6,1.2-1,2-1.4c0.8-0.3,1.6-0.5,2.5-0.5h0.6
	c1.8,0,3.2,0.5,4.3,1.5c1.1,1,1.7,2.3,2,3.9c0.1,0.6,0.4,1.1,0.8,1.4c0.4,0.3,0.8,0.4,1.3,0.4c0.5,0,1-0.2,1.5-0.5
	c0.4-0.3,0.7-0.9,0.7-1.5v-0.3c-0.2-1.3-0.6-2.5-1.2-3.6c-0.6-1.1-1.4-2.1-2.3-2.9c-0.9-0.8-2-1.4-3.2-1.9c-1.2-0.5-2.5-0.7-3.8-0.7
	h-0.6c-1.4,0-2.8,0.3-4.1,0.8c-1.3,0.6-2.4,1.3-3.4,2.2c-0.9,0.9-1.7,2-2.3,3.3c-0.5,1.3-0.8,2.6-0.8,4.1v17.9
	c0,1.5,0.3,2.8,0.8,4.1c0.6,1.3,1.3,2.4,2.3,3.3c0.9,0.9,2.1,1.7,3.4,2.2c1.3,0.5,2.6,0.8,4.1,0.8h0.6c1.4,0,2.8-0.3,4.1-0.8
	c1.3-0.5,2.4-1.3,3.3-2.2c0.9-0.9,1.7-2,2.3-3.3c0.6-1.3,0.8-2.6,0.8-4.1V442z M792.9,442.7c0-1.3-0.2-2.5-0.7-3.6
	c-0.5-1.1-1.1-2-1.9-2.9c-0.8-0.8-1.8-1.4-2.8-1.9c-1.1-0.4-2.3-0.7-3.5-0.7h-0.5c-1.2,0-2.4,0.2-3.5,0.7c-1.1,0.5-2,1.1-2.9,1.9
	c-0.8,0.8-1.4,1.8-1.9,2.8c-0.5,1.1-0.7,2.2-0.7,3.5v9.5c0,1.3,0.2,2.4,0.7,3.5c0.5,1.1,1.1,2,1.9,2.8c0.8,0.8,1.8,1.4,2.9,1.9
	c1.1,0.5,2.2,0.7,3.5,0.7h0.5c1.9,0,3.5-0.5,5-1.5c1.4-1,2.5-2.2,3.1-3.8c0.1-0.3,0.2-0.6,0.2-0.9c0-0.6-0.2-1.1-0.7-1.6
	c-0.4-0.4-0.9-0.6-1.5-0.6c-0.4,0-0.7,0.1-1.1,0.3c-0.3,0.2-0.6,0.6-0.8,1c-0.4,0.8-0.9,1.4-1.6,2c-0.7,0.6-1.6,0.8-2.7,0.8h-0.5
	c-1.3,0-2.4-0.5-3.3-1.4c-0.9-0.9-1.4-2-1.4-3.3v-2.8h12.1c0.6,0,1.1-0.2,1.5-0.6c0.4-0.4,0.6-0.9,0.6-1.5V442.7z M788.7,445.5h-10
	v-2.8c0-1.3,0.5-2.5,1.4-3.4c0.9-0.9,2.1-1.4,3.3-1.4h0.5c1.2,0,2.3,0.5,3.2,1.4c0.9,0.9,1.4,2.1,1.4,3.4V445.5z M820.5,453.1
	c0-1.8-0.4-3.2-1.1-4.2c-0.7-1-1.6-1.8-2.6-2.4c-1.1-0.6-2.2-1-3.5-1.3c-1.3-0.3-2.4-0.6-3.4-0.8c-1.1-0.3-1.9-0.6-2.7-1.1
	c-0.7-0.5-1.1-1.2-1.1-2.1v-0.2c0-0.8,0.5-1.5,1.3-2.1c0.8-0.6,2-0.9,3.5-0.9h0.2c1.2,0,2.2,0.2,2.9,0.5l1.9,1
	c0.4,0.2,0.8,0.3,1.2,0.3c0.6,0,1.1-0.2,1.4-0.6c0.4-0.4,0.6-0.9,0.6-1.4c0-0.7-0.3-1.2-0.8-1.6c-0.2-0.2-0.6-0.4-1-0.7
	c-0.4-0.3-1-0.5-1.5-0.8c-0.6-0.2-1.3-0.5-2.1-0.6c-0.8-0.2-1.7-0.3-2.6-0.3h-0.2c-0.9,0-1.9,0.1-2.9,0.4c-1,0.2-2,0.6-2.9,1.2
	c-0.9,0.6-1.7,1.3-2.3,2.2c-0.6,0.9-0.9,2-0.9,3.3c0,1.7,0.4,3.1,1.1,4c0.7,0.9,1.6,1.7,2.7,2.2c1,0.5,2.2,0.9,3.5,1.1
	c1.2,0.2,2.4,0.5,3.4,0.8c1.1,0.3,1.9,0.8,2.7,1.4c0.7,0.6,1.1,1.4,1.1,2.6v0.2c0,0.9-0.5,1.8-1.4,2.5c-0.9,0.8-2.2,1.2-3.9,1.2
	h-0.3c-1,0-2.1-0.4-3.2-1.1c-1.1-0.7-1.9-1.5-2.6-2.4c-0.3-0.4-0.6-0.6-0.9-0.8c-0.3-0.1-0.7-0.2-1-0.2c-0.5,0-1,0.2-1.5,0.6
	c-0.4,0.4-0.7,0.9-0.7,1.5c0,0.1,0.1,0.5,0.3,1c0.4,0.8,1,1.6,1.7,2.3c0.7,0.7,1.5,1.3,2.3,1.7c0.8,0.5,1.7,0.8,2.7,1.1
	c0.9,0.3,1.9,0.4,2.7,0.4h0.3c1.1,0,2.3-0.2,3.4-0.5c1.1-0.3,2.2-0.8,3.1-1.5c0.9-0.6,1.7-1.4,2.2-2.4c0.5-1,0.8-2.1,0.8-3.4V453.1z
	 M847.3,442.7c0-1.3-0.2-2.5-0.7-3.6c-0.5-1.1-1.1-2-1.9-2.9c-0.8-0.8-1.8-1.4-2.8-1.9c-1.1-0.4-2.3-0.7-3.5-0.7h-0.6
	c-1.2,0-2.4,0.2-3.4,0.7c-1.1,0.5-2,1.1-2.9,1.9c-0.8,0.8-1.5,1.8-1.9,2.8c-0.5,1.1-0.7,2.2-0.7,3.5v9.5c0,1.3,0.2,2.4,0.7,3.5
	c0.4,1.1,1.1,2,1.9,2.8c0.8,0.8,1.8,1.4,2.9,1.9c1.1,0.5,2.2,0.7,3.4,0.7h0.6c1.9,0,3.5-0.5,4.9-1.5c1.4-1,2.5-2.2,3.1-3.8
	c0.1-0.3,0.2-0.6,0.2-0.9c0-0.6-0.2-1.1-0.7-1.6c-0.4-0.4-0.9-0.6-1.5-0.6c-0.4,0-0.7,0.1-1,0.3c-0.3,0.2-0.6,0.6-0.8,1
	c-0.4,0.8-0.9,1.4-1.6,2c-0.7,0.6-1.6,0.8-2.7,0.8h-0.6c-1.3,0-2.4-0.5-3.3-1.4c-0.9-0.9-1.4-2-1.4-3.3v-2.8h12.1
	c0.6,0,1.1-0.2,1.5-0.6c0.4-0.4,0.6-0.9,0.6-1.5V442.7z M843.1,445.5h-10v-2.8c0-1.3,0.5-2.5,1.4-3.4c0.9-0.9,2.1-1.4,3.3-1.4h0.6
	c1.2,0,2.3,0.5,3.2,1.4c0.9,0.9,1.4,2.1,1.4,3.4V445.5z M865.6,457.5c-0.3-0.5-0.9-0.7-1.6-0.7c-0.8,0-1.6-0.4-2.2-0.9
	c-0.6-0.6-0.9-1.3-0.9-2.2v-29.5c0-0.7-0.2-1.2-0.7-1.6c-0.4-0.3-0.9-0.5-1.4-0.5c-0.5,0-1,0.2-1.5,0.5c-0.4,0.4-0.7,0.9-0.7,1.6
	v29.5c0,1,0.2,1.9,0.5,2.8c0.4,0.9,0.9,1.7,1.6,2.3c0.7,0.7,1.4,1.2,2.3,1.6c0.9,0.4,1.8,0.6,2.8,0.6c0.7,0,1.3-0.2,1.6-0.6
	c0.3-0.4,0.5-0.9,0.5-1.4C866.1,458.4,865.9,457.9,865.6,457.5 M883,457.5c-0.3-0.5-0.9-0.7-1.6-0.7c-0.8,0-1.6-0.4-2.2-0.9
	c-0.6-0.6-0.9-1.3-0.9-2.2v-29.5c0-0.7-0.2-1.2-0.7-1.6c-0.5-0.3-0.9-0.5-1.5-0.5c-0.5,0-1,0.2-1.4,0.5c-0.4,0.4-0.7,0.9-0.7,1.6
	v29.5c0,1,0.2,1.9,0.5,2.8c0.4,0.9,0.9,1.7,1.6,2.3c0.7,0.7,1.5,1.2,2.3,1.6c0.9,0.4,1.8,0.6,2.8,0.6c0.7,0,1.3-0.2,1.6-0.6
	c0.3-0.4,0.5-0.9,0.5-1.4C883.4,458.4,883.3,457.9,883,457.5 M910.3,453.1c0-1.8-0.4-3.2-1.1-4.2c-0.7-1-1.6-1.8-2.6-2.4
	c-1.1-0.6-2.2-1-3.5-1.3c-1.3-0.3-2.4-0.6-3.4-0.8c-1.1-0.3-1.9-0.6-2.6-1.1c-0.7-0.5-1.1-1.2-1.1-2.1v-0.2c0-0.8,0.5-1.5,1.3-2.1
	c0.8-0.6,2-0.9,3.5-0.9h0.2c1.3,0,2.2,0.2,2.9,0.5c0.7,0.4,1.4,0.7,1.9,1c0.4,0.2,0.8,0.3,1.2,0.3c0.6,0,1.1-0.2,1.4-0.6
	c0.4-0.4,0.6-0.9,0.6-1.4c0-0.7-0.3-1.2-0.8-1.6c-0.2-0.2-0.5-0.4-1-0.7c-0.4-0.3-0.9-0.5-1.6-0.8c-0.6-0.2-1.3-0.5-2.1-0.6
	c-0.8-0.2-1.7-0.3-2.6-0.3h-0.2c-0.9,0-1.9,0.1-2.9,0.4c-1.1,0.2-2,0.6-2.9,1.2c-0.9,0.6-1.7,1.3-2.3,2.2c-0.6,0.9-0.9,2-0.9,3.3
	c0,1.7,0.4,3.1,1.1,4c0.7,0.9,1.6,1.7,2.7,2.2c1,0.5,2.2,0.9,3.4,1.1c1.3,0.2,2.4,0.5,3.5,0.8c1,0.3,1.9,0.8,2.7,1.4
	c0.7,0.6,1.1,1.4,1.1,2.6v0.2c0,0.9-0.5,1.8-1.4,2.5c-0.9,0.8-2.2,1.2-3.9,1.2h-0.3c-1,0-2.1-0.4-3.2-1.1c-1.1-0.7-1.9-1.5-2.6-2.4
	c-0.3-0.4-0.6-0.6-0.9-0.8c-0.3-0.1-0.7-0.2-1-0.2c-0.5,0-1,0.2-1.5,0.6c-0.4,0.4-0.7,0.9-0.7,1.5c0,0.1,0.1,0.5,0.3,1
	c0.4,0.8,1,1.6,1.7,2.3c0.7,0.7,1.5,1.3,2.3,1.7c0.8,0.5,1.7,0.8,2.7,1.1c0.9,0.3,1.9,0.4,2.7,0.4h0.3c1.1,0,2.3-0.2,3.4-0.5
	c1.1-0.3,2.2-0.8,3.1-1.5c0.9-0.6,1.7-1.4,2.2-2.4c0.5-1,0.8-2.1,0.8-3.4V453.1z M936.5,450.5c-0.5-0.3-0.9-0.5-1.4-0.5
	c-0.5,0-1,0.2-1.4,0.5c-0.4,0.4-0.7,0.9-0.7,1.6c-0.1,1.3-0.6,2.4-1.5,3.3c-0.9,0.9-2,1.4-3.3,1.4h-0.5c-1.3,0-2.5-0.5-3.4-1.4
	c-0.9-0.9-1.4-2-1.4-3.3v-9.5c0-1.3,0.5-2.4,1.4-3.3c0.9-0.9,2-1.4,3.3-1.4h0.6c1.3,0,2.4,0.4,3.3,1.3c0.9,0.9,1.4,2,1.5,3.4
	c0,0.7,0.3,1.2,0.7,1.5c0.4,0.3,0.9,0.5,1.4,0.5c0.5,0,1-0.2,1.4-0.5c0.4-0.4,0.7-0.9,0.7-1.6c0-1.2-0.2-2.4-0.7-3.5
	c-0.5-1.1-1.1-2-1.9-2.8c-0.8-0.8-1.7-1.5-2.8-1.9c-1.1-0.5-2.3-0.7-3.5-0.7h-0.6c-1.2,0-2.4,0.2-3.4,0.7c-1.1,0.5-2,1.1-2.8,1.9
	c-0.8,0.8-1.4,1.7-1.9,2.8c-0.5,1.1-0.7,2.3-0.7,3.5v9.5c0,1.3,0.2,2.4,0.7,3.5c0.5,1.1,1.1,2,1.9,2.8c0.8,0.8,1.8,1.4,2.9,1.9
	c1.1,0.5,2.2,0.7,3.4,0.7h0.6c1.2,0,2.4-0.2,3.5-0.7c1.1-0.5,2-1.1,2.9-1.9c0.8-0.8,1.4-1.7,1.9-2.8c0.5-1.1,0.7-2.2,0.7-3.5
	C937.1,451.4,936.9,450.8,936.5,450.5 M964.4,442.6c0-1.2-0.2-2.4-0.7-3.5c-0.5-1.1-1.1-2-1.9-2.8c-0.8-0.8-1.8-1.5-2.8-1.9
	c-1.1-0.5-2.2-0.7-3.5-0.7H955c-1,0-1.9,0.1-2.8,0.4c-0.9,0.3-1.6,0.7-2,1.2v-11.1c0-0.7-0.2-1.2-0.7-1.6c-0.5-0.3-0.9-0.5-1.4-0.5
	c-0.5,0-1,0.2-1.4,0.5c-0.4,0.4-0.7,0.9-0.7,1.6V459c0,0.7,0.2,1.2,0.7,1.6c0.4,0.3,0.9,0.5,1.4,0.5c0.5,0,1-0.2,1.4-0.5
	c0.4-0.3,0.7-0.8,0.7-1.6v-16.6c0-0.7,0.1-1.3,0.4-1.9c0.3-0.6,0.7-1,1.1-1.4c0.5-0.4,1-0.7,1.6-0.9c0.6-0.2,1.2-0.3,1.9-0.3
	c0.6,0,1.2,0.1,1.8,0.3c0.6,0.2,1.1,0.5,1.6,0.9c0.5,0.4,0.9,0.9,1.1,1.5c0.3,0.6,0.4,1.3,0.4,2.1V459c0,0.7,0.2,1.2,0.7,1.6
	c0.4,0.3,0.9,0.5,1.4,0.5c0.5,0,1-0.2,1.4-0.5c0.4-0.3,0.7-0.8,0.7-1.6V442.6z M994,457.6c-0.3-0.4-0.7-0.6-1.3-0.7
	c-1-0.2-1.4-0.8-1.4-1.8v-12.8c0-1.2-0.2-2.3-0.7-3.3c-0.4-1-1.1-1.9-1.8-2.7c-0.8-0.8-1.7-1.4-2.8-1.8c-1.1-0.4-2.2-0.7-3.4-0.7
	h-0.4c-0.7,0-1.5,0.1-2.3,0.3c-0.8,0.2-1.5,0.4-2.3,0.8c-0.7,0.4-1.4,0.9-2.1,1.6c-0.6,0.7-1.2,1.5-1.6,2.5c-0.2,0.3-0.2,0.6-0.2,1
	c0,0.6,0.2,1.1,0.7,1.4c0.4,0.3,0.9,0.5,1.4,0.5c0.4,0,0.7-0.1,1.1-0.2c0.3-0.2,0.6-0.5,0.8-0.9c0.5-0.9,1.1-1.6,1.8-2.1
	c0.7-0.5,1.6-0.7,2.7-0.7h0.4c1.2,0,2.3,0.3,3.2,1c0.9,0.7,1.3,1.8,1.3,3.5c0,0.1,0,0.3,0,0.5c0,0.2-0.1,0.3-0.1,0.4
	c-0.2,0.3-0.7,0.5-1.5,0.7c-0.8,0.2-1.7,0.3-2.7,0.5c-1,0.2-2.1,0.4-3.3,0.7c-1.1,0.3-2.2,0.7-3.2,1.3c-1,0.6-1.8,1.3-2.4,2.3
	c-0.6,0.9-0.9,2.1-0.9,3.6v0.7c0,1.3,0.3,2.4,0.8,3.4c0.5,1,1.2,1.8,2,2.5c0.8,0.7,1.8,1.2,2.9,1.5c1.1,0.3,2.2,0.5,3.3,0.5h0.5
	c2.3,0,4.3-0.7,6-2.2c0.4,0.5,0.8,1,1.5,1.3c0.6,0.4,1.4,0.6,2.3,0.8c0,0,0.2,0,0.4,0c0.7,0,1.2-0.2,1.5-0.6
	c0.4-0.4,0.5-0.9,0.5-1.5C994.5,458.5,994.3,458,994,457.6 M987,452.1c0,1.3-0.5,2.4-1.4,3.3c-0.9,0.9-2.1,1.4-3.3,1.4h-0.5
	c-1.4,0-2.6-0.4-3.4-1.1c-0.9-0.7-1.3-1.6-1.3-2.8v-0.4c0-1,0.3-1.7,1-2.2c0.7-0.5,1.5-0.9,2.5-1.2c1-0.3,2.1-0.5,3.2-0.7
	c1.1-0.2,2.3-0.4,3.3-0.6V452.1z M1012.6,422.8c-0.3-0.4-0.9-0.7-1.6-0.7c-1,0-2,0.2-2.9,0.6c-0.9,0.4-1.6,0.9-2.3,1.5
	c-0.6,0.6-1.1,1.4-1.5,2.3c-0.4,0.9-0.5,1.9-0.5,2.9v4.4h-1.2c-0.7,0-1.2,0.2-1.6,0.7c-0.3,0.4-0.5,0.9-0.5,1.4c0,0.5,0.2,1,0.5,1.4
	c0.3,0.4,0.9,0.7,1.6,0.7h1.2V459c0,0.7,0.2,1.2,0.7,1.6c0.4,0.3,0.9,0.5,1.4,0.5c0.5,0,1-0.2,1.5-0.5c0.4-0.3,0.7-0.8,0.7-1.6
	v-20.9h2.6c0.7,0,1.2-0.2,1.6-0.7c0.3-0.4,0.5-0.9,0.5-1.4c0-0.5-0.2-1-0.5-1.4c-0.3-0.4-0.9-0.7-1.6-0.7h-2.6v-4.4
	c0-0.8,0.3-1.6,0.8-2.2c0.6-0.6,1.2-0.9,2.1-0.9c0.7,0,1.2-0.2,1.6-0.7c0.4-0.4,0.5-0.9,0.5-1.4
	C1013.1,423.7,1012.9,423.3,1012.6,422.8 M1030.8,457.5c-0.3-0.4-0.8-0.7-1.5-0.7c-0.8-0.1-1.6-0.4-2.3-0.9c-0.6-0.5-1-1.3-1-2.2
	v-15.6h3c0.7,0,1.2-0.2,1.6-0.7c0.4-0.4,0.5-0.9,0.5-1.4c0-0.5-0.2-1-0.5-1.4c-0.3-0.4-0.9-0.7-1.6-0.7h-3v-9.6
	c0-0.7-0.2-1.2-0.7-1.6c-0.5-0.3-0.9-0.5-1.4-0.5c-0.5,0-1,0.2-1.4,0.5c-0.5,0.4-0.7,0.9-0.7,1.6v9.6h-1.9c-0.7,0-1.2,0.2-1.6,0.7
	c-0.3,0.4-0.5,0.9-0.5,1.4c0,0.5,0.2,1,0.5,1.4c0.3,0.4,0.9,0.7,1.6,0.7h1.9v15.7c0,1,0.2,1.9,0.5,2.8c0.4,0.9,0.9,1.7,1.6,2.3
	c0.7,0.7,1.4,1.2,2.3,1.6c0.9,0.4,1.8,0.6,2.8,0.6c0.7,0,1.3-0.2,1.6-0.6c0.3-0.4,0.5-0.9,0.5-1.4
	C1031.2,458.4,1031.1,457.9,1030.8,457.5"/>
</svg>
