<?xml version="1.0" encoding="utf-8"?>
<!-- Generator: Adobe Illustrator 26.0.2, SVG Export Plug-In . SVG Version: 6.00 Build 0)  -->
<svg version="1.1" id="Calque_1" xmlns="http://www.w3.org/2000/svg" xmlns:xlink="http://www.w3.org/1999/xlink" x="0px" y="0px"
	 viewBox="0 0 137 111.71" style="enable-background:new 0 0 137 111.71;" xml:space="preserve">
<style type="text/css">
	
		.st0{clip-path:url(#SVGID_00000134939223449025977780000013157418476534958478_);fill-rule:evenodd;clip-rule:evenodd;fill:#EE1313;}
</style>
<g>
	<defs>
		<rect id="SVGID_1_" width="137" height="111.71"/>
	</defs>
	<clipPath id="SVGID_00000075147398296812798860000009564533801737726083_">
		<use xlink:href="#SVGID_1_"  style="overflow:visible;"/>
	</clipPath>
	
		<path style="clip-path:url(#SVGID_00000075147398296812798860000009564533801737726083_);fill-rule:evenodd;clip-rule:evenodd;fill:#EE1313;" d="
		M66.28,23.51c0.49,0.01,1.88-0.01,1.73,0.49c-0.13,0.44-0.41,0.56-0.82,0.71c-0.2,0.09-0.61,0.18-0.81,0.27
		c-0.41,0.17-0.83,0.24-1.27,0.36c-0.4,0.14-0.81,0.29-1.21,0.44c-0.34,0.14-1.05,0.54-0.96,0.86c0.41,0.33,1.73-0.38,2.11-0.5
		c0.94-0.3,1.82-0.65,2.68-1.01c0.5-0.13,0.99-0.27,1.49-0.4c0.28-0.08,0.35-0.08,0.58-0.19c0.28-0.09,0.56-0.18,0.84-0.27
		c0.75-0.23,2.03-0.33,2.35,0.29c0.33,0.64-1.39,0.92-1.83,1.07c-0.87,0.29-1.72,0.58-2.54,0.92c-0.47,0.19-0.91,0.29-1.36,0.48
		c-0.82,0.35-2.12,0.91-2.21,1.28c0,0.32,0.4,0.24,0.64,0.19c0.27-0.06,0.5-0.2,0.74-0.3c0.29-0.11,0.59-0.22,0.88-0.32
		c0.12-0.07,0.25-0.14,0.37-0.21c0.55-0.19,1.15-0.48,1.71-0.67c0.73-0.29,1.38-0.55,2.11-0.87c0.44-0.18,0.9-0.25,1.37-0.41
		c0.41-0.15,0.79-0.29,1.23-0.38c0.71-0.14,2.28-0.2,2.5,0.33c0.04,0.1,0.13,0.3,0.1,0.44c-0.1,0.45-1.18,0.65-1.63,0.82
		c-0.46,0.17-0.99,0.26-1.48,0.44c-0.51,0.18-1.08,0.38-1.6,0.55c-0.53,0.18-1.03,0.36-1.52,0.58c-0.6,0.27-1.24,0.54-1.81,0.86
		c-0.47,0.26-0.92,0.57-1.37,0.85c-0.13,0.08-0.36,0.25-0.27,0.46c0.66,0.28,1.79-0.65,2.27-0.88c0.96-0.45,1.99-0.89,3.04-1.23
		c0.83-0.28,1.65-0.49,2.5-0.74c0.32-0.09,0.67-0.27,0.99-0.39c0.65-0.24,2.84-0.94,3.21,0.01c0.06,0.16,0.02,0.32-0.03,0.44
		c-0.19,0.44-0.57,0.38-1,0.57c-0.29,0.13-0.63,0.18-0.94,0.32c-1.08,0.5-2.26,0.81-3.33,1.3c-1.24,0.57-2.51,1.13-3.73,1.7
		c-0.41,0.19-0.76,0.51-1.12,0.75c-0.15,0.07-0.29,0.15-0.44,0.22c-0.52,0.31-1.04,0.62-1.56,0.93c-0.84,0.56-1.6,1.22-2.4,1.82
		c-0.39,0.29-0.81,0.56-1.2,0.85c-0.44,0.33-0.47,0.48-0.81,0.91c-0.13,0.13-0.26,0.26-0.39,0.39c-0.42,0.54-0.82,1.16-1.1,1.82
		c-0.26,0.61-0.55,1.99-0.32,2.8c0.03,0.12,0.15,0.2,0.21,0.29c0.41,0.64,1.26,1.33,2.42,1.16c0.23-0.01,0.47-0.03,0.7-0.04
		c0.41-0.09,0.82-0.17,1.23-0.26c0.49-0.17,0.68-0.24,1.13-0.42c0.35-0.18,1.66-1.02,2-1.2c0.22-0.13,0.43-0.32,0.65-0.44
		c0.63-0.33,1.3-0.65,2.02-0.89c1.12-0.38,2.36-0.57,2.68,0.58c0.08,0.29-0.26,0.95-0.35,1.11c-0.23,0.38-0.54,0.8-0.86,1.19
		c-0.27,0.37-0.64,0.65-0.98,0.95c-0.88,0.78-2.92,2.36-3.9,3.04c-0.43,0.3-1.25,0.84-1.71,1.11c-0.92,0.54-3.02,1.36-3.51,1.53
		c-0.65,0.22-1.25,0.56-1.93,0.75c-0.39,0.1-0.75,0.27-1.12,0.4c-0.39,0.14-0.76,0.21-1.18,0.31c-0.3,0.07-0.56,0.2-0.88,0.28
		c-0.27,0.07-0.96,0.31-1.22,0.19c-0.41-0.18-0.66-0.54-1-0.8c-0.22-0.16-0.39-0.37-0.57-0.58c-0.19-0.21-0.38-0.41-0.57-0.62
		c-0.09-0.18-0.18-0.35-0.27-0.53c-0.04-0.04-0.08-0.09-0.12-0.13c-0.16-0.36-0.3-0.71-0.46-1.07c-0.66-1.45-1.25-2.87-1.63-4.63
		c-0.53-2.53-0.16-5.33,0.49-7.54c0.15-0.47,0.29-0.95,0.44-1.42c0.18-0.42,0.37-0.84,0.55-1.27c0.25-0.6,0.51-1.18,0.85-1.69
		c0.6-0.87,1.28-1.72,2-2.48c0.23-0.23,0.45-0.46,0.68-0.69c0.28-0.32,0.6-0.63,0.93-0.9c0.14-0.15,0.28-0.3,0.42-0.46
		c0.19-0.22,0.44-0.36,0.67-0.54c0.08-0.07,0.16-0.14,0.24-0.2c0.5-0.3,1.05-0.53,1.59-0.82c0.39-0.21,0.79-0.45,1.2-0.65
		c0.24-0.11,0.48-0.21,0.72-0.32c0.23-0.13,0.61-0.26,0.88-0.36c0.83-0.21,1.64-0.36,2.47-0.57C65.82,23.54,66.01,23.59,66.28,23.51
		"/>
	
		<path style="clip-path:url(#SVGID_00000075147398296812798860000009564533801737726083_);fill-rule:evenodd;clip-rule:evenodd;fill:#EE1313;" d="
		M80.62,29.05c0.15,0.03,0.4-0.03,0.54,0.04c0.48,0.24,1.01,1.05,1.31,1.49c0.49,0.7,1.11,1.58,1.55,2.32
		c0.14,0.23,0.21,0.5,0.31,0.76c0.09,0.19,0.19,0.38,0.28,0.57c0.14,0.33,0.25,0.71,0.36,1.08c0.33,1.1,0.53,2.07,0.75,3.28
		c0.13,0.72,0.09,1.62-0.01,2.3c-0.08,0.53-0.04,1.04-0.16,1.51c-0.01,0.19-0.03,0.39-0.04,0.58c-0.08,0.38-0.1,0.79-0.2,1.17
		c-0.13,0.47-0.29,0.98-0.49,1.41c-0.07,0.13-0.15,0.26-0.22,0.4c-0.2,0.52-0.36,1-0.56,1.51c-0.22,0.56-0.61,1.08-0.88,1.59
		c-0.16,0.3-0.34,0.65-0.56,0.9c-0.33,0.38-0.67,0.77-1,1.16c-0.15,0.15-0.3,0.29-0.45,0.44c-0.15,0.16-0.3,0.33-0.45,0.49
		c-0.12,0.1-0.23,0.2-0.34,0.3c-0.79,0.92-1.65,1.73-2.63,2.46c-0.22,0.16-0.4,0.38-0.64,0.52c-0.22,0.14-0.45,0.28-0.67,0.42
		c-0.41,0.15-0.69,0.32-1.1,0.47c-0.09,0.04-0.29,0.18-0.38,0.21c-0.32,0.13-0.65,0.34-1,0.47c-0.37,0.14-0.76,0.19-1.16,0.31
		c-0.49,0.15-1.03,0.33-1.54,0.47c-0.7,0.19-2.19,0.17-2.36-0.45c-0.13-0.48,0.94-0.57,1.28-0.67c0.23-0.07,0.54-0.13,0.76-0.21
		c0.53-0.2,0.96-0.34,1.49-0.54c0.22-0.1,0.43-0.2,0.65-0.3c0.24-0.09,0.9-0.39,0.84-0.72c-0.05-0.05-0.11-0.12-0.19-0.14
		c-0.11-0.03-0.22,0.06-0.29,0.09c-0.46,0.16-0.85,0.27-1.28,0.44c-0.67,0.27-1.41,0.56-2.11,0.8c-0.41,0.1-0.82,0.19-1.23,0.29
		c-0.58,0.19-1.13,0.4-1.71,0.6c-0.14,0.06-0.29,0.13-0.44,0.19c-0.73,0.18-2.28,0.31-2.55-0.38c-0.26-0.67,1.25-0.82,1.67-0.98
		c0.19-0.08,0.41-0.19,0.62-0.25c0.33-0.1,0.62-0.15,0.93-0.27c0.29-0.11,0.62-0.25,0.93-0.35c0.23-0.07,0.47-0.14,0.7-0.21
		c0.66-0.25,1.34-0.59,1.97-0.88c0.32-0.15,1.5-0.53,1.39-0.97c-0.08-0.05-0.19-0.13-0.35-0.11c-0.27,0.04-0.41,0.17-0.62,0.26
		c-0.4,0.19-0.75,0.38-1.2,0.52c-0.91,0.29-1.76,0.75-2.67,1.07c-0.27,0.08-0.55,0.16-0.82,0.24c-0.15,0.07-0.3,0.14-0.45,0.21
		c-0.45,0.19-0.73,0.23-1.22,0.37c-0.32,0.09-0.89,0.25-1.19,0.36c-0.4,0.15-1.45,0.44-1.92,0.29c-0.33-0.11-0.89-0.37-1.03-0.66
		c-0.04-0.09,0-0.18,0.02-0.25c0.17-0.64,0.93-0.73,1.48-0.98c0.75-0.35,1.68-0.48,2.49-0.77c0.63-0.22,1.25-0.45,1.88-0.67
		c0.64-0.3,1.33-0.57,1.99-0.83c0.44-0.17,0.85-0.34,1.26-0.52c0.17-0.07,0.34-0.14,0.5-0.21c0.18-0.12,0.43-0.34,0.18-0.54
		c-0.2-0.16-0.44-0.04-0.65,0.04c-0.23,0.1-0.46,0.19-0.69,0.29c-0.42,0.16-0.8,0.3-1.18,0.49c-0.37,0.19-0.51,0.2-1.03,0.4
		c-0.46,0.29-1.28,0.58-1.8,0.84c-0.73,0.28-1.52,0.51-2.32,0.7c-0.31,0.1-0.61,0.2-0.92,0.3c-0.3,0.08-0.6,0.15-0.9,0.23
		c-0.14,0.02-0.28,0.04-0.42,0.06c-1.01,0.24-2.13,0.36-2.61-0.51c-0.06-0.1-0.04-0.26,0-0.36c0.16-0.45,0.69-0.48,1.16-0.62
		c0.12-0.04,0.33-0.03,0.44-0.07c0.36-0.07,0.62-0.2,0.98-0.28c0.51-0.18,1.11-0.23,1.63-0.41c0.45-0.15,0.89-0.23,1.31-0.39
		c0.44-0.21,1.02-0.37,1.46-0.58c0.13-0.08,0.27-0.15,0.4-0.23c0.66-0.29,1.23-0.59,1.82-0.96c0.24-0.15,0.5-0.29,0.75-0.44
		c0.13-0.09,0.25-0.19,0.38-0.28c0.82-0.48,1.7-1.01,2.46-1.56c0.21-0.15,0.37-0.37,0.57-0.53c0.47-0.37,1.26-1.05,1.64-1.51
		c0.1-0.09,0.19-0.17,0.29-0.26c0.09-0.14,0.18-0.29,0.27-0.43c0.46-0.61,1.28-1.62,1.53-2.42c0.09-0.29,0.11-0.56,0.17-0.86
		c0.04-0.21,0.12-0.45,0.09-0.72c-0.03-0.25-0.02-0.51-0.08-0.74c-0.14-0.51-0.49-1.04-0.98-1.21c-0.24-0.09-0.46-0.11-0.71-0.19
		c-0.57-0.17-1.48-0.19-2.13-0.03c-0.28,0.11-0.58,0.15-0.86,0.26c-0.39,0.15-0.78,0.25-1.28,0.4c-0.34,0.13-0.73,0.35-1.01,0.52
		c-0.34,0.19-0.71,0.32-1.07,0.47c-0.52,0.23-1.06,0.6-1.58,0.85c-0.54,0.26-2.63,1.36-2.94,0.2c-0.12-0.46,0.16-1.15,0.3-1.44
		c0.11-0.22,0.17-0.43,0.29-0.62c0.18-0.21,0.36-0.42,0.54-0.63c0.32-0.39,0.68-0.77,1.05-1.11c0.19-0.18,0.37-0.28,0.57-0.46
		c0.3-0.34,0.66-0.59,1.04-0.84c0.41-0.27,0.24-0.08,0.65-0.35c0.13-0.07,0.29-0.23,0.42-0.3c0.24-0.16,0.48-0.33,0.72-0.49
		c0.39-0.26,0.79-0.46,1.2-0.7c0.63-0.37,1.3-0.76,1.93-1.14c0.34-0.15,0.68-0.31,1.03-0.46c0.25-0.14,0.51-0.28,0.76-0.42
		c0.59-0.3,1.13-0.59,1.74-0.86c1.06-0.47,2.21-0.9,3.31-1.34c0.58-0.23,1-0.48,1.62-0.68C80.22,29.1,80.4,29.11,80.62,29.05"/>
</g>
<path d="M38.46,88.2h-1.1v-6.21h1.1V88.2z M44.28,88.2v-4.1c0-0.66-0.16-1.18-0.47-1.58c-0.31-0.4-0.8-0.6-1.47-0.6
	c-0.65,0-1.12,0.21-1.4,0.63v-0.56h-1.1v6.21h1.1v-3.94c0-0.42,0.1-0.75,0.3-0.99c0.2-0.24,0.48-0.36,0.84-0.36
	c0.74,0,1.1,0.44,1.1,1.31v3.98H44.28z M45.81,81.04v0.95h-0.63v0.94h0.63v3.77c0,0.52,0.12,0.91,0.35,1.17
	c0.23,0.26,0.62,0.39,1.17,0.39c0.14,0,0.29-0.01,0.46-0.03c0.17-0.02,0.25-0.03,0.26-0.03v-0.95h-0.44c-0.28,0-0.46-0.06-0.56-0.19
	s-0.14-0.34-0.14-0.63v-3.49h1.15v-0.94h-1.15v-0.95H45.81z M54.82,85.43c0.02-0.12,0.02-0.29,0.02-0.5
	c-0.01-0.93-0.29-1.67-0.84-2.22c-0.55-0.55-1.29-0.82-2.2-0.82c-0.89,0-1.62,0.3-2.18,0.91c-0.56,0.6-0.85,1.38-0.85,2.32
	c0,0.97,0.29,1.74,0.87,2.32c0.58,0.58,1.34,0.87,2.27,0.87c0.69,0,1.27-0.17,1.74-0.5c0.47-0.33,0.82-0.76,1.04-1.28l-0.85-0.44
	c-0.44,0.82-1.09,1.23-1.94,1.23c-0.59,0-1.06-0.17-1.41-0.5c-0.36-0.34-0.55-0.8-0.59-1.39H54.82 M51.79,82.84
	c0.54,0,0.99,0.15,1.33,0.46c0.34,0.31,0.54,0.72,0.57,1.23h-3.75c0.07-0.53,0.27-0.94,0.6-1.24
	C50.88,82.99,51.29,82.84,51.79,82.84 M58.35,81.98c-0.66-0.01-1.12,0.2-1.38,0.61v-0.6h-1.1v6.21h1.1v-3.9
	c0-0.8,0.36-1.19,1.08-1.19h0.3V81.98 M63.8,88.2v-4.1c0-0.66-0.16-1.18-0.47-1.58c-0.31-0.4-0.8-0.6-1.47-0.6
	c-0.65,0-1.12,0.21-1.4,0.63v-0.56h-1.1v6.21h1.1v-3.94c0-0.42,0.1-0.75,0.3-0.99c0.2-0.24,0.48-0.36,0.84-0.36
	c0.74,0,1.1,0.44,1.1,1.31v3.98H63.8z M71.22,88.2v-6.21h-1.06v0.85c-0.2-0.28-0.5-0.51-0.88-0.69c-0.39-0.18-0.81-0.27-1.25-0.27
	c-0.92,0-1.68,0.3-2.27,0.91c-0.6,0.61-0.89,1.38-0.89,2.3c0,0.95,0.29,1.72,0.88,2.31c0.59,0.59,1.35,0.89,2.29,0.89
	c0.52,0,0.97-0.11,1.34-0.32c0.38-0.21,0.64-0.45,0.81-0.7v0.92H71.22z M66.55,83.5c0.39-0.42,0.89-0.63,1.51-0.63
	c0.61,0,1.11,0.21,1.51,0.63c0.39,0.42,0.59,0.95,0.59,1.6c0,0.65-0.19,1.18-0.59,1.6c-0.39,0.41-0.89,0.62-1.5,0.62
	c-0.62,0-1.12-0.21-1.51-0.62c-0.39-0.41-0.59-0.95-0.59-1.6C65.97,84.45,66.17,83.92,66.55,83.5 M72.77,81.04v0.95h-0.63v0.94h0.63
	v3.77c0,0.52,0.12,0.91,0.35,1.17c0.23,0.26,0.62,0.39,1.17,0.39c0.14,0,0.29-0.01,0.46-0.03c0.17-0.02,0.25-0.03,0.26-0.03v-0.95
	h-0.44c-0.28,0-0.46-0.06-0.56-0.19s-0.14-0.34-0.14-0.63v-3.49h1.15v-0.94h-1.15v-0.95H72.77z M77.14,81.99h-1.1v6.21h1.1V81.99z
	 M78.22,85.1c0,0.94,0.3,1.71,0.9,2.31c0.6,0.6,1.36,0.89,2.29,0.89c0.92,0,1.69-0.3,2.3-0.91c0.61-0.61,0.92-1.38,0.92-2.3
	c0-0.93-0.3-1.69-0.9-2.3c-0.6-0.6-1.37-0.9-2.3-0.9c-0.92,0-1.68,0.3-2.29,0.9C78.52,83.4,78.22,84.17,78.22,85.1 M79.33,85.1
	c0-0.65,0.19-1.18,0.58-1.6c0.39-0.41,0.89-0.62,1.51-0.62c0.61,0,1.11,0.21,1.5,0.63c0.39,0.42,0.59,0.95,0.59,1.59
	s-0.2,1.17-0.59,1.58c-0.39,0.41-0.89,0.62-1.5,0.62s-1.11-0.21-1.5-0.62C79.52,86.27,79.33,85.74,79.33,85.1 M90.14,88.2v-4.1
	c0-0.66-0.16-1.18-0.47-1.58c-0.31-0.4-0.8-0.6-1.47-0.6c-0.65,0-1.12,0.21-1.4,0.63v-0.56h-1.1v6.21h1.1v-3.94
	c0-0.42,0.1-0.75,0.3-0.99c0.2-0.24,0.48-0.36,0.84-0.36c0.74,0,1.1,0.44,1.1,1.31v3.98H90.14z M97.56,88.2v-6.21H96.5v0.85
	c-0.2-0.28-0.5-0.51-0.88-0.69c-0.39-0.18-0.81-0.27-1.25-0.27c-0.92,0-1.68,0.3-2.27,0.91c-0.6,0.61-0.89,1.38-0.89,2.3
	c0,0.95,0.29,1.72,0.88,2.31c0.59,0.59,1.35,0.89,2.29,0.89c0.52,0,0.97-0.11,1.34-0.32c0.38-0.21,0.64-0.45,0.81-0.7v0.92H97.56z
	 M92.89,83.5c0.39-0.42,0.89-0.63,1.51-0.63c0.61,0,1.11,0.21,1.51,0.63c0.39,0.42,0.59,0.95,0.59,1.6c0,0.65-0.19,1.18-0.59,1.6
	c-0.39,0.41-0.89,0.62-1.5,0.62c-0.62,0-1.12-0.21-1.51-0.62c-0.39-0.41-0.59-0.95-0.59-1.6C92.31,84.45,92.51,83.92,92.89,83.5
	 M100.03,79.72h-1.1v8.48h1.1V79.72z M37.36,81.42h1.1v-1.05h-1.1V81.42z M76.03,81.42h1.1v-1.05h-1.1V81.42z M87.17,62.78h-2.79
	v2.39h2.79V62.78z M51.93,62.78h-2.79v2.39h2.79V62.78z M27.17,76.06c1.08,0,1.98-0.27,2.68-0.81c0.69-0.53,1.05-1.34,1.05-2.41
	c0-0.86-0.19-1.52-0.57-1.97c-0.38-0.45-1.01-0.8-1.94-1.06l-0.3-0.07c-0.13-0.03-0.28-0.06-0.46-0.09
	c-0.18-0.03-0.32-0.06-0.42-0.09c-0.61-0.13-0.92-0.41-0.92-0.83c0-0.23,0.08-0.41,0.24-0.55c0.16-0.13,0.37-0.2,0.62-0.2
	c0.43,0,0.95,0.17,1.03,0.98h2.53c-0.04-1.01-0.35-1.77-0.93-2.26c-0.61-0.51-1.48-0.77-2.58-0.77c-1.02,0-1.88,0.28-2.55,0.83
	c-0.66,0.54-0.99,1.29-0.99,2.2c0,1.5,0.68,2.47,2.07,2.94c0.46,0.15,0.97,0.28,1.52,0.39c0.34,0.07,0.57,0.16,0.71,0.29
	c0.15,0.13,0.22,0.33,0.22,0.58c0,0.23-0.1,0.42-0.29,0.56c-0.18,0.13-0.42,0.19-0.71,0.19c-0.34,0-0.61-0.09-0.79-0.28
	c-0.17-0.18-0.26-0.44-0.27-0.78h-2.64c-0.01,0.9,0.26,1.66,0.79,2.26C24.86,75.74,25.83,76.06,27.17,76.06 M37.35,76.09
	c1.53,0,2.8-0.49,3.76-1.47c0.96-0.97,1.45-2.21,1.45-3.67c0-1.46-0.48-2.68-1.42-3.64c-0.94-0.95-2.22-1.44-3.81-1.44
	c-1.5,0-2.74,0.5-3.71,1.48c-0.97,0.98-1.46,2.21-1.46,3.66c0,1.46,0.48,2.68,1.42,3.64C34.52,75.61,35.79,76.09,37.35,76.09
	 M37.35,68.37c0.72,0,1.31,0.25,1.76,0.75c0.45,0.5,0.68,1.13,0.68,1.88c0,0.75-0.22,1.38-0.65,1.87c-0.43,0.49-1.03,0.74-1.77,0.74
	c-0.72,0-1.31-0.25-1.76-0.74c-0.45-0.49-0.68-1.12-0.68-1.87c0-0.76,0.22-1.39,0.65-1.88C36.01,68.62,36.61,68.37,37.35,68.37
	 M44.24,75.92h2.79V62.35h-2.79V75.92z M49.14,75.92h2.79v-9.87h-2.79V75.92z M58.66,76.09c1.08,0,1.94-0.27,2.59-0.8l0.21-0.18
	v0.81H64V62.35h-2.79v4.27l-0.2-0.12c-0.64-0.4-1.48-0.61-2.49-0.61c-1.46,0-2.66,0.5-3.59,1.48c-0.93,0.99-1.4,2.21-1.4,3.65
	c0,1.48,0.47,2.71,1.4,3.66C55.88,75.62,57.12,76.09,58.66,76.09 M58.81,68.31c0.74,0,1.35,0.26,1.81,0.77
	c0.46,0.51,0.69,1.15,0.69,1.9c0,0.75-0.23,1.38-0.67,1.89c-0.45,0.51-1.06,0.76-1.83,0.76c-0.73,0-1.33-0.26-1.8-0.76
	c-0.46-0.5-0.7-1.14-0.7-1.89c0-0.76,0.23-1.4,0.68-1.9C57.44,68.57,58.06,68.31,58.81,68.31 M70.79,76.09
	c1.12,0,2.01-0.27,2.62-0.8l0.22-0.19v0.82h2.54v-9.87h-2.6v0.81l-0.22-0.19c-0.58-0.52-1.44-0.78-2.56-0.78
	c-1.52,0-2.76,0.48-3.68,1.44c-0.92,0.96-1.39,2.19-1.39,3.66c0,1.53,0.47,2.78,1.39,3.71C68.03,75.62,69.27,76.09,70.79,76.09
	 M70.98,68.33c0.73,0,1.33,0.26,1.8,0.76c0.46,0.5,0.7,1.14,0.7,1.89c0,0.77-0.22,1.42-0.67,1.91c-0.45,0.5-1.06,0.75-1.81,0.75
	c-0.75,0-1.37-0.26-1.83-0.76c-0.46-0.5-0.69-1.14-0.69-1.91c0-0.76,0.22-1.4,0.67-1.9C69.59,68.59,70.21,68.33,70.98,68.33
	 M81.09,75.92v-5.91c0-0.36,0.08-0.63,0.25-0.81c0.17-0.18,0.47-0.27,0.9-0.27h0.63V66c-0.68,0.03-1.2,0.26-1.54,0.7l-0.23,0.3
	v-0.95h-2.79v9.87H81.09z M84.38,75.92h2.79v-9.87h-2.79V75.92z M92.42,76.04c0.63,0,1.1-0.05,1.4-0.15v-2.33h-0.38
	c-0.33,0-0.57-0.08-0.73-0.25c-0.16-0.17-0.23-0.42-0.23-0.79v-4.16h1.34v-2.29h-1.34v-1.61h-2.79v1.61H88.8v2.29h0.89v5.07
	c0,0.84,0.23,1.5,0.68,1.94C90.82,75.81,91.51,76.04,92.42,76.04 M100.22,76.09c1.11,0,2.04-0.24,2.74-0.72
	c0.67-0.45,1.17-1,1.5-1.62l-2.11-1.24c-0.52,0.76-1.23,1.15-2.1,1.15c-0.61,0-1.11-0.15-1.5-0.44c-0.39-0.3-0.63-0.71-0.69-1.22
	l-0.02-0.15h6.79c0.02-0.31,0.03-0.66,0.03-1.04c0-1.48-0.44-2.69-1.3-3.58c-0.86-0.89-2.05-1.34-3.55-1.34
	c-1.42,0-2.59,0.49-3.49,1.45c-0.9,0.97-1.36,2.21-1.36,3.7c0,1.56,0.47,2.8,1.39,3.7C97.46,75.64,98.7,76.09,100.22,76.09
	 M99.99,68.16c0.56,0,1.02,0.16,1.37,0.48c0.34,0.32,0.54,0.72,0.58,1.19l0.01,0.14h-3.84l0.01-0.14c0.04-0.46,0.23-0.86,0.56-1.18
	C99.01,68.33,99.45,68.16,99.99,68.16 M101.39,65.17l1.4-2.39h-2.67l-1.28,2.39H101.39z M109.76,76.06c1.08,0,1.98-0.27,2.68-0.81
	c0.69-0.53,1.05-1.34,1.05-2.41c0-0.86-0.19-1.52-0.57-1.97c-0.38-0.45-1.01-0.8-1.94-1.06l-0.3-0.07
	c-0.13-0.03-0.28-0.06-0.46-0.09c-0.18-0.03-0.32-0.06-0.42-0.09c-0.61-0.13-0.92-0.41-0.92-0.83c0-0.23,0.08-0.41,0.24-0.55
	c0.16-0.13,0.37-0.2,0.62-0.2c0.43,0,0.95,0.17,1.03,0.98h2.53c-0.04-1.01-0.35-1.77-0.92-2.26c-0.61-0.51-1.48-0.77-2.58-0.77
	c-1.03,0-1.88,0.28-2.55,0.83c-0.66,0.54-0.99,1.29-0.99,2.2c0,1.5,0.68,2.47,2.07,2.94c0.46,0.15,0.97,0.28,1.52,0.39
	c0.34,0.07,0.57,0.16,0.71,0.29c0.15,0.13,0.22,0.33,0.22,0.58c0,0.23-0.1,0.42-0.29,0.56c-0.18,0.13-0.42,0.19-0.71,0.19
	c-0.34,0-0.61-0.09-0.79-0.28c-0.17-0.18-0.26-0.44-0.27-0.78h-2.64c-0.01,0.9,0.26,1.66,0.79,2.26
	C107.45,75.74,108.41,76.06,109.76,76.06"/>
</svg>
